<?xml version="1.0" encoding="utf-8"?>
<!-- Generator: Adobe Illustrator 27.5.0, SVG Export Plug-In . SVG Version: 6.00 Build 0)  -->
<svg version="1.1" id="Layer_2" xmlns="http://www.w3.org/2000/svg" xmlns:xlink="http://www.w3.org/1999/xlink" x="0px" y="0px"
	 viewBox="0 0 475.944 219.259" style="enable-background:new 0 0 475.944 219.259;" xml:space="preserve">
<g>
	<g>
		<g>
			<path style="fill:#DD1931;" d="M443.162,106.065v11.852c-2.229-1.543-4.866-3.033-7.96-4.555c0,0,0-5.578,0-9.139
				c0-3.561-14.194-0.544-13.376-7.142c1.036-8.359,36.589-7.627,39.472-7.627c5.416,0-0.028,5.272-3.931,9.526
				c-2.598,2.832-3.757,2.298-9.244,2.298S443.162,106.065,443.162,106.065z"/>
			<path style="fill:#AA001D;" d="M443.161,118.392c-0.095,0-0.189-0.029-0.27-0.084c-2.13-1.474-4.714-2.953-7.899-4.52
				c-0.162-0.08-0.265-0.245-0.265-0.426v-9.139c0-1.085-2.524-1.417-4.965-1.739c-3.982-0.525-8.938-1.178-8.407-5.463
				c0.902-7.272,24.99-8.169,39.273-8.048l0.67,0.005c1.444,0,2.304,0.36,2.625,1.1c0.754,1.731-2.096,4.796-5.113,8.041
				c-0.371,0.399-0.738,0.794-1.094,1.181c-2.347,2.559-3.719,2.535-7.379,2.474c-0.651-0.011-1.383-0.023-2.215-0.023
				c-1.597,0-2.791,0.427-3.549,1.269c-1.109,1.229-0.942,2.977-0.94,2.995c0.002,0.016,0.003,0.033,0.003,0.05v11.852
				c0,0.176-0.099,0.339-0.254,0.421C443.313,118.374,443.237,118.392,443.161,118.392z M435.677,113.067
				c2.749,1.362,5.053,2.663,7.009,3.956v-10.934c-0.024-0.272-0.146-2.224,1.173-3.696c0.946-1.056,2.381-1.591,4.263-1.591
				c0.837,0,1.574,0.012,2.231,0.023c3.621,0.067,4.604,0.078,6.663-2.166c0.356-0.389,0.725-0.785,1.098-1.186
				c2.297-2.471,5.444-5.854,4.938-7.015c-0.149-0.341-0.773-0.53-1.755-0.53l-0.677-0.005c-23.387-0.163-37.739,2.507-38.323,7.215
				c-0.385,3.109,2.902,3.786,7.588,4.404c3.108,0.409,5.792,0.763,5.792,2.68V113.067z"/>
		</g>
		<path style="fill:#D10000;" d="M461.298,89.453c-0.013,0-0.039,0-0.054,0c0.039,1.38-2.523,4.044-4.536,6.329
			c-1.904,2.16-7.391,1.753-11.411,1.753s-3.636,3.653-3.636,3.653v9.041c0,3.413-5.39,4.008-5.39-3.246c0,0,0-4.255,0-6.972
			s-11.919-0.644-11.32-5.677c0.039-0.324,0.177-0.626,0.368-0.915c-2.007,0.969-3.308,2.169-3.493,3.662
			c-0.817,6.598,13.376,3.581,13.376,7.142c0,3.561,0,9.139,0,9.139c3.093,1.522,5.731,3.012,7.96,4.555v-11.852
			c0,0-0.525-4.788,4.961-4.788s6.646,0.535,9.244-2.298C461.269,94.725,466.714,89.453,461.298,89.453z"/>
		<path style="fill:#DB1B1B;" d="M454.903,91.447c-3.969-0.604-7.997-0.791-12.004-0.545c-2.017,0.124-4.027,0.361-6.017,0.713
			c-1.764,0.312-4.132,0.532-5.611,1.617c-0.447,0.328-0.47,1.161,0.209,1.199c0.929,0.051,1.807-0.304,2.69-0.557
			c0.981-0.281,1.965-0.546,2.959-0.778c1.841-0.428,3.704-0.761,5.58-0.994c4.01-0.498,8.035-0.507,12.05-0.074
			C455.112,92.065,455.308,91.508,454.903,91.447z"/>
		<path style="fill:#DB1B1B;" d="M428.906,94.473c-0.565,0-0.892,0.941-0.231,0.941C429.241,95.414,429.568,94.473,428.906,94.473z"
			/>
	</g>
	<g>
		<g>
			<path style="fill:#C2E0F2;" d="M375.216,90.821c3.112,5.705,19.238,4.272,19.238,4.272l0,0
				c-5.956-4.045-8.086-8.439-10.708-16.436c-8.987-27.405-16.327-43.588-26.346-53.55l0,0
				C352.916,30.662,372.105,85.117,375.216,90.821z"/>
			<path style="fill:#43A2DD;" d="M390.094,95.736c-5.113,0-13.105-0.673-15.295-4.687c-2.426-4.446-22.63-60.218-17.769-66.24
				l0.33-0.409l0.374,0.371c9.439,9.385,16.858,24.452,26.463,53.739c2.638,8.046,4.784,12.293,10.523,16.191l1.101,0.749
				l-1.327,0.118C394.28,95.586,392.508,95.736,390.094,95.736z M357.501,25.884c-2.893,7.274,14.665,58.353,18.132,64.71
				c2.423,4.442,13.587,4.303,17.454,4.11c-5.153-3.845-7.257-8.168-9.792-15.898C373.89,50.13,366.618,35.185,357.501,25.884z"/>
		</g>
		<g style="opacity:0.5;">
			<path style="fill:#FFFFFF;" d="M370.551,79.091c1.151,3.182,2.195,5.939,3.029,8.013c2.383,2.383,4.766,4.765,7.148,7.148
				c1.852,0.491,3.912,0.751,5.865,0.882C381.246,89.786,375.898,84.438,370.551,79.091z"/>
			<path style="fill:#FFFFFF;" d="M367.145,68.334c7.49,7.49,14.981,14.981,22.471,22.471c-2.589-3.092-4.124-6.818-5.871-12.147
				c-1.021-3.114-2.02-6.076-3.005-8.908c-6.523-6.523-13.045-13.045-19.568-19.568c1.662,5.868,3.613,12.071,5.535,17.836
				C366.859,68.098,367.007,68.196,367.145,68.334z"/>
			<path style="fill:#FFFFFF;" d="M356.881,30.885c0.214,2.045,0.64,4.499,1.23,7.241c5.757,5.757,11.513,11.513,17.27,17.27
				c-1.6-3.947-3.192-7.533-4.804-10.815L356.881,30.885z"/>
			<path style="fill:#FFFFFF;" d="M364.416,33.741c-2.219-3.309-4.535-6.165-7.017-8.633c-0.215,0.267-0.374,0.65-0.484,1.132
				L364.416,33.741z"/>
		</g>
		<path style="opacity:0.5;fill:#7CBAE0;" d="M387.595,87.922c-4.3-0.04-10.612-0.656-12.326-3.797
			c-2.657-4.871-18.98-51.185-15.321-56.277c-0.832-0.961-1.679-1.875-2.549-2.74c-4.483,5.554,14.705,60.009,17.817,65.714
			c3.112,5.705,19.238,4.272,19.238,4.272C391.313,92.961,389.241,90.726,387.595,87.922z"/>
	</g>
	<g>
		<g>
			<path style="fill:#C2E0F2;" d="M122.723,98.148c10.019-0.319,17.573-12.321,50.15-42.282
				c32.577-29.961,31.766-37.084,28.65-39.004c0,0-41.313,27.68-97.645,76.437C103.878,93.3,116.506,98.347,122.723,98.148z"/>
			<path style="fill:#43A2DD;" d="M122.357,98.629c-6.349,0.001-18.146-4.685-18.655-4.889l-0.725-0.289l0.59-0.51
				c55.709-48.219,97.277-76.196,97.69-76.472l0.253-0.171l0.261,0.161c0.965,0.595,1.511,1.487,1.624,2.653
				c0.546,5.687-9.615,18.171-30.201,37.105c-10.501,9.658-18.33,17.379-24.622,23.584c-13.339,13.156-18.86,18.601-25.835,18.824
				l0,0C122.613,98.628,122.486,98.629,122.357,98.629z M104.787,93.142c2.772,1.058,12.705,4.694,17.921,4.532l0,0
				c6.602-0.21,12.046-5.579,25.197-18.55c6.296-6.21,14.133-13.938,24.645-23.607c25.355-23.319,30.254-32.619,29.899-36.314
				c-0.072-0.759-0.378-1.34-0.929-1.765C197.881,19.904,157.816,47.298,104.787,93.142z"/>
		</g>
		<g style="opacity:0.5;">
			<path style="fill:#FFFFFF;" d="M108.397,89.413c-1.5,1.287-2.996,2.569-4.519,3.887c0,0,6.432,2.57,12.375,3.97
				C113.635,94.651,111.016,92.032,108.397,89.413z"/>
			<path style="fill:#FFFFFF;" d="M121.802,98.139c0.318,0.013,0.629,0.019,0.921,0.009c2.464-0.078,4.78-0.868,7.354-2.453
				c-0.022-0.021-0.046-0.034-0.068-0.056c-4.435-4.435-8.869-8.869-13.304-13.304c-1.907,1.61-3.841,3.254-5.789,4.917
				C114.545,90.882,118.173,94.51,121.802,98.139z"/>
			<path style="fill:#FFFFFF;" d="M137.995,89.363c0.65-0.597,1.316-1.219,2.015-1.882L126.6,74.071
				c-0.706,0.584-1.418,1.177-2.129,1.767L137.995,89.363z"/>
			<path style="fill:#FFFFFF;" d="M121.918,77.964c-0.706,0.589-1.409,1.175-2.123,1.774l13.601,13.601
				c0.679-0.536,1.393-1.138,2.126-1.77L121.918,77.964z"/>
			<path style="fill:#FFFFFF;" d="M142.309,61.268c-4.222,3.387-8.603,6.943-13.148,10.686l13.236,13.236
				c3.361-3.26,7.304-7.195,12.067-11.848C150.402,69.327,146.349,65.304,142.309,61.268z"/>
			<path style="fill:#FFFFFF;" d="M198.668,28.719c5.659-7.912,4.648-10.752,2.855-11.857c0,0-3.074,2.061-8.675,6.037
				L198.668,28.719z"/>
			<path style="fill:#FFFFFF;" d="M190.118,24.848c-1.827,1.309-3.847,2.768-6.066,4.388c2.6,2.6,5.201,5.201,7.801,7.801
				c1.885-2.091,3.468-3.964,4.802-5.652C194.476,29.206,192.297,27.027,190.118,24.848z"/>
			<path style="fill:#FFFFFF;" d="M186.097,43.135c1.254-1.277,2.431-2.501,3.516-3.659l-8.262-8.262
				c-1.317,0.968-2.697,1.989-4.125,3.05L186.097,43.135z"/>
			<path style="fill:#FFFFFF;" d="M172.383,37.884c-2.071,1.557-4.235,3.195-6.494,4.919c3.409,3.349,6.796,6.72,10.176,10.098
				c2.083-1.951,4.008-3.794,5.794-5.541L172.383,37.884z"/>
			<path style="fill:#FFFFFF;" d="M171.418,57.209c0.482-0.446,0.961-0.889,1.455-1.343c0.264-0.243,0.508-0.472,0.768-0.712
				c-3.455-3.453-6.916-6.899-10.402-10.321c-0.772,0.593-1.578,1.217-2.369,1.828C164.385,50.177,167.902,53.693,171.418,57.209z"
				/>
			<path style="fill:#FFFFFF;" d="M158.231,48.701c-4.206,3.264-8.647,6.753-13.324,10.486c3.964,3.96,7.941,7.907,11.926,11.847
				c3.581-3.477,7.609-7.331,12.159-11.572C165.404,55.875,161.818,52.288,158.231,48.701z"/>
		</g>
		<path style="opacity:0.5;fill:#7CBAE0;" d="M201.523,16.863c0,0-1.202,0.806-3.472,2.381c-0.771,4.428-6.927,13.693-28.379,33.422
			c-30.845,28.369-37.998,39.733-47.485,40.035c-3.742,0.119-9.932-1.767-13.949-3.158c-1.444,1.239-2.896,2.489-4.361,3.757
			c0,0,12.627,5.047,18.844,4.849c10.019-0.319,17.573-12.321,50.15-42.282C205.449,25.905,204.639,18.782,201.523,16.863z"/>
	</g>
	<g>
		<path style="fill:#F15F6C;" d="M411.38,103.151c-7.958-3.11-13.266-5.533-17.041-8.097l0,0c0,0-16.126,1.432-19.237-4.272
			c-3.112-5.705-22.301-60.16-17.817-65.714l0,0c-13.453-13.376-31.63-17.183-65.336-18.527
			c-29.426-1.173-78.466-1.793-90.54,10.281c3.116,1.919,3.926,9.042-28.65,39.004c-32.577,29.961-40.131,41.963-50.15,42.283
			c-6.217,0.198-18.844-4.849-18.844-4.849s-8.43,3.462-20.703,6.515c-35.556,8.846-49.061,13.169-60.09,46.98
			c-4.662,14.292-6.168,21.692,4.83,21.692c15.755,0,63.893,0,63.893,0s1.633-33.48,33.48-33.48
			c31.847,0,33.481,32.391,33.481,32.391h152.837c0,0,4.849-32.601,35.559-32.601s37.444,32.461,37.444,32.461
			s58.726,1.212,64.383-3.502c4.995-4.162,4.983-15.898,4.983-22.628C453.862,120.432,444.976,116.28,411.38,103.151z"/>
		<path style="fill:#B53948;" d="M92.147,168.923H27.801c-3.797,0-6.29-0.892-7.621-2.726c-2.594-3.574-0.667-10.373,2.339-19.589
			c10.899-33.409,24.038-38.239,60.427-47.293c12.095-3.009,20.554-6.459,20.638-6.494l0.178-0.072l0.179,0.071
			c0.126,0.05,12.623,5.006,18.653,4.815c6.602-0.21,12.046-5.579,25.197-18.55c6.297-6.21,14.133-13.938,24.645-23.607
			c25.355-23.319,30.254-32.618,29.9-36.314c-0.083-0.866-0.468-1.499-1.176-1.935l-0.511-0.315l0.425-0.425
			c9.087-9.086,38.827-12.491,90.894-10.42c41.057,1.636,54.748,7.823,65.653,18.665l0.303,0.302l-0.269,0.334
			c-4.085,5.06,14.308,58.664,17.865,65.187c2.929,5.369,18.62,4.041,18.778,4.026l0.169-0.015l0.14,0.095
			c3.51,2.384,8.42,4.716,16.946,8.047c33.913,13.253,42.783,17.578,42.783,38.38c0,7.021,0,18.698-5.154,22.993
			c-5.729,4.773-62.292,3.661-64.697,3.613l-0.378-0.008l-0.077-0.37c-0.067-0.321-7.019-32.083-36.979-32.083
			c-29.937,0-35.041,31.873-35.09,32.195l-0.06,0.405H158.203l-0.022-0.451c-0.017-0.319-1.988-31.94-33.006-31.94
			c-31.035,0-32.989,32.698-33.006,33.028L92.147,168.923z M103.766,93.772c-1.289,0.515-9.395,3.68-20.59,6.465
			c-36.817,9.16-48.978,13.632-59.754,46.666c-2.824,8.657-4.799,15.533-2.474,18.737c1.139,1.57,3.381,2.333,6.852,2.333h63.453
			c0.16-1.867,1.008-9.222,4.818-16.486c4.065-7.752,12.414-16.994,29.103-16.994c16.685,0,25.034,8.942,29.1,16.444
			c3.802,7.014,4.656,14.117,4.82,15.947h151.998c0.708-3.781,7.067-32.601,35.958-32.601c28.953,0,36.935,28.84,37.823,32.469
			c20.356,0.408,59.359,0.216,63.7-3.399c4.813-4.011,4.813-15.856,4.813-22.219c0-20.287-8.055-24.205-42.178-37.54
			c-8.486-3.316-13.433-5.658-16.995-8.052c-1.841,0.147-16.441,1.124-19.528-4.532c-1.491-2.734-6.955-17.29-11.793-33
			c-3.992-12.965-8.226-28.953-6.212-32.871C344.336,13.034,327.906,8.451,291.93,7.017c-50.33-2.01-80.523,1.277-89.783,9.758
			c0.662,0.574,1.044,1.345,1.135,2.297c0.547,5.688-9.615,18.172-30.201,37.105c-10.501,9.658-18.33,17.379-24.622,23.584
			c-13.339,13.156-18.861,18.601-25.835,18.824C116.697,98.754,105.384,94.409,103.766,93.772z"/>
	</g>
	<path style="opacity:0.4;fill:#D35E6F;" d="M411.38,103.151c-7.958-3.11-13.266-5.533-17.041-8.097c0,0-16.126,1.432-19.237-4.272
		c-3.112-5.705-22.301-60.16-17.817-65.714c-13.453-13.376-31.63-17.183-65.336-18.526c-29.426-1.173-78.466-1.793-90.54,10.281
		c3.116,1.919,3.926,9.042-28.65,39.004c-32.577,29.961-40.131,41.963-50.15,42.282c-6.217,0.198-18.844-4.849-18.844-4.849
		s-8.43,3.462-20.703,6.515c-35.556,8.846-49.061,13.169-60.09,46.98c-4.662,14.292-6.168,21.692,4.83,21.692
		c15.755,0,63.893,0,63.893,0s1.633-33.48,33.48-33.48c31.847,0,33.481,32.391,33.481,32.391h152.837
		c0,0,4.849-32.601,35.559-32.601s37.444,32.461,37.444,32.461s58.726,1.212,64.383-3.502c4.995-4.162,4.983-15.898,4.983-22.628
		C453.862,120.432,444.976,116.28,411.38,103.151z M281.835,7.454c38.468,0.862,63.25,6.646,65.063,17.394
		c-1.913-2.057-12.198-12.81-64.557-13.806c-45.687-0.869-66.82,2.506-77.481,7.185C209.135,9.966,246.693,6.666,281.835,7.454z
		 M210.173,148.138c-49.068,0-30.925-17.279-65.483-32.42c-18.439-8.078-40.517-6.297-55.655,7.627
		c-10.434,9.597-16.15,19.703-16.15,19.703l-14.789-2.576c0,0,14.251-9.05,14.789-23.371c0.363-9.655-4.612-11.767-4.612-11.767
		l34.916-10.136c3.853,1.164,14.415,5.342,21.045,5.342c6.63,0,11.841-4.478,9.631-1.717c-2.209,2.761-2.524,5.85-1.625,7.625
		c2.513,4.966,10.342,2.73,10.342,2.73c2.281,4.861,6.515,7.924,15.547,7.687c9.598-0.252,11.697-5.875,14.825-5.923
		c12.006-0.184,42.381,0.96,55.128,0.96c12.747,0,17.64-0.34,17.64,13.823S246.88,148.138,210.173,148.138z M398.435,137.71
		c-8.429-11.862-23.847-25.809-48.698-25.809c-24.851,0-38.26,10.946-47.511,22.125c-9.251,11.178-23.23,9.022-34.537,9.022
		c-11.307,0-12.335-11.156-10.601-22.105c1.734-10.949,8.727-10.782,32.597-10.782c25.491,0,46.121-1.374,62.192-4.538
		c14.373-2.829,13.349-10.79,13.349-13.62c0-2.83,7.149-3.277,7.819-1.199c0.67,2.078,3.649,4.328,8.021,5.072
		c8.247,1.403,13.386,0.624,13.386,0.624s10.227,6.265,22.094,10.445c8.845,3.116,14.402,6.977,14.402,6.977
		s-3.708,3.994-2.642,12.926c1.382,11.577,10.941,14.853,10.941,14.853S406.864,149.572,398.435,137.71z"/>
	<path style="fill:#B53948;" d="M251.859,160.881c-2.032-31.946-0.02-54.979,0.001-55.209l0.946,0.085
		c-0.02,0.228-2.026,23.195,0.001,55.064L251.859,160.881z"/>
	<g>
		<g>
			
				<ellipse transform="matrix(0.9951 -0.0985 0.0985 0.9951 -14.7015 35.0526)" style="fill:#303030;" cx="347.51" cy="166.359" rx="46.943" ry="46.944"/>
			<path d="M347.51,213.778c-26.146,0-47.418-21.272-47.418-47.418c0-26.147,21.272-47.419,47.418-47.419
				c26.146,0,47.418,21.272,47.418,47.419C394.928,192.506,373.656,213.778,347.51,213.778z M347.51,119.89
				c-25.623,0-46.468,20.846-46.468,46.469s20.845,46.468,46.468,46.468c25.623,0,46.468-20.845,46.468-46.468
				S373.133,119.89,347.51,119.89z"/>
		</g>
		<path style="opacity:0.6;fill:#262626;" d="M347.51,119.416c-25.926,0-46.944,21.017-46.944,46.943
			c0,25.926,21.017,46.944,46.944,46.944c25.926,0,46.944-21.017,46.944-46.944C394.454,140.433,373.436,119.416,347.51,119.416z
			 M347.51,208.034c-23.016,0-41.675-18.658-41.675-41.675s18.658-41.675,41.675-41.675c23.016,0,41.675,18.658,41.675,41.675
			S370.526,208.034,347.51,208.034z"/>
		
			<ellipse transform="matrix(0.8507 -0.5257 0.5257 0.8507 -35.5598 207.5422)" style="opacity:0.4;fill:#262626;" cx="347.51" cy="166.359" rx="32.333" ry="32.333"/>
		
			<ellipse transform="matrix(0.8507 -0.5257 0.5257 0.8507 -35.9334 207.6482)" style="fill:#262626;" cx="347.51" cy="167.07" rx="22.516" ry="22.516"/>
		<g>
			<path style="fill:#A8A8A8;" d="M347.51,148.139c-10.063,0-18.22,8.158-18.22,18.22s8.158,18.22,18.22,18.22
				c10.063,0,18.221-8.158,18.221-18.22S357.573,148.139,347.51,148.139z"/>
			<path style="fill:#565656;" d="M347.51,185.054c-10.309,0-18.696-8.387-18.696-18.695c0-10.309,8.387-18.696,18.696-18.696
				c10.309,0,18.696,8.387,18.696,18.696C366.206,176.668,357.819,185.054,347.51,185.054z M347.51,148.614
				c-9.785,0-17.746,7.961-17.746,17.746c0,9.785,7.961,17.745,17.746,17.745c9.785,0,17.746-7.96,17.746-17.745
				C365.256,156.575,357.295,148.614,347.51,148.614z"/>
		</g>
		<path style="opacity:0.5;fill:#A8A8A8;" d="M347.51,148.139c-10.063,0-18.22,8.158-18.22,18.22
			c0,10.063,8.158,18.221,18.22,18.221c10.063,0,18.221-8.158,18.221-18.221C365.731,156.296,357.573,148.139,347.51,148.139z
			 M347.51,181.981c-8.628,0-15.622-6.994-15.622-15.622c0-8.628,6.994-15.622,15.622-15.622c8.628,0,15.622,6.994,15.622,15.622
			C363.132,174.987,356.138,181.981,347.51,181.981z"/>
		<polygon style="opacity:0.5;fill:#A8A8A8;" points="365.73,165.409 352.241,165.409 364.684,160.201 363.951,158.447 
			351.593,163.62 361.066,154.147 359.723,152.804 350.182,162.344 355.299,149.859 353.541,149.139 348.46,161.536 348.46,148.138 
			346.56,148.138 346.56,161.63 341.352,149.185 339.599,149.918 344.772,162.278 335.298,152.804 333.955,154.147 343.493,163.686 
			331.011,158.57 330.29,160.329 342.686,165.409 329.29,165.409 329.29,167.309 342.779,167.309 330.336,172.517 331.07,174.271 
			343.428,169.098 333.955,178.571 335.298,179.914 344.837,170.376 339.721,182.858 341.479,183.578 346.56,171.181 346.56,184.58 
			348.46,184.58 348.46,171.089 353.669,183.533 355.422,182.8 350.248,170.44 359.723,179.914 361.066,178.571 351.527,169.033 
			364.009,174.148 364.73,172.389 352.334,167.309 365.73,167.309 		"/>
		<g>
			<g>
				<rect x="347.035" y="148.138" style="fill:#565656;" width="0.95" height="36.442"/>
				<rect x="329.29" y="165.884" style="fill:#565656;" width="36.44" height="0.95"/>
				
					<rect x="329.29" y="165.884" transform="matrix(0.7071 -0.7071 0.7071 0.7071 -15.8503 294.4523)" style="fill:#565656;" width="36.441" height="0.95"/>
				
					<rect x="347.035" y="148.139" transform="matrix(0.7071 -0.7071 0.7071 0.7071 -15.848 294.4586)" style="fill:#565656;" width="0.95" height="36.441"/>
			</g>
			<g>
				
					<rect x="329.29" y="165.884" transform="matrix(0.3792 -0.9253 0.9253 0.3792 61.8039 424.8358)" style="fill:#565656;" width="36.441" height="0.95"/>
				
					<rect x="347.035" y="148.139" transform="matrix(0.3792 -0.9253 0.9253 0.3792 61.791 424.8224)" style="fill:#565656;" width="0.95" height="36.44"/>
				
					<rect x="329.29" y="165.884" transform="matrix(0.9225 -0.386 0.386 0.9225 -37.2829 147.047)" style="fill:#565656;" width="36.44" height="0.949"/>
				
					<rect x="347.035" y="148.139" transform="matrix(0.9225 -0.3861 0.3861 0.9225 -37.2842 147.073)" style="fill:#565656;" width="0.951" height="36.441"/>
			</g>
		</g>
		<path style="fill:#A8A8A8;" d="M347.51,156.83c-5.461,0-9.889,4.427-9.889,9.889c0,5.462,4.428,9.889,9.889,9.889
			c5.462,0,9.889-4.428,9.889-9.889C357.399,161.258,352.972,156.83,347.51,156.83z"/>
		<g>
			<path style="fill:#F15F6C;" d="M347.51,157.511c-4.887,0-8.848,3.962-8.848,8.848s3.961,8.848,8.848,8.848
				s8.849-3.962,8.849-8.848S352.397,157.511,347.51,157.511z"/>
			<path style="fill:#B53948;" d="M347.51,175.682c-5.141,0-9.324-4.182-9.324-9.323c0-5.141,4.182-9.324,9.324-9.324
				c5.141,0,9.324,4.182,9.324,9.324C356.834,171.5,352.651,175.682,347.51,175.682z M347.51,157.986
				c-4.617,0-8.374,3.756-8.374,8.374c0,4.617,3.756,8.373,8.374,8.373c4.617,0,8.374-3.756,8.374-8.373
				C355.884,161.742,352.127,157.986,347.51,157.986z"/>
		</g>
		<path style="opacity:0.5;fill:#F47A7A;" d="M347.77,161.326c-2.986,0-5.407,2.421-5.407,5.407c0,2.986,2.421,5.407,5.407,5.407
			c2.986,0,5.407-2.421,5.407-5.407C353.177,163.747,350.757,161.326,347.77,161.326z"/>
		<g>
			<path style="fill:#F47A7A;" d="M347.77,161.679c-2.576,0-4.664,2.088-4.664,4.664c0,2.576,2.088,4.664,4.664,4.664
				c2.576,0,4.664-2.088,4.664-4.664C352.435,163.767,350.346,161.679,347.77,161.679z"/>
			<path style="fill:#B53948;" d="M347.771,171.482c-2.834,0-5.14-2.305-5.14-5.139c0-2.834,2.305-5.14,5.14-5.14
				c2.833,0,5.139,2.305,5.139,5.14C352.909,169.177,350.604,171.482,347.771,171.482z M347.771,162.154
				c-2.31,0-4.19,1.88-4.19,4.19c0,2.31,1.88,4.189,4.19,4.189c2.31,0,4.189-1.879,4.189-4.189
				C351.96,164.034,350.081,162.154,347.771,162.154z"/>
		</g>
		<path style="opacity:0.5;fill:#F47A7A;" d="M347.77,161.679c1.608,0,2.912,1.303,2.912,2.912c0,1.608-1.304,2.912-2.912,2.912
			c-1.608,0-2.912-1.304-2.912-2.912C344.859,162.983,346.162,161.679,347.77,161.679c-2.576,0-4.664,2.088-4.664,4.664
			c0,2.576,2.088,4.664,4.664,4.664c2.576,0,4.664-2.088,4.664-4.664C352.435,163.767,350.346,161.679,347.77,161.679z"/>
	</g>
	<g>
		<g>
			
				<ellipse transform="matrix(0.1602 -0.9871 0.9871 0.1602 -60.7474 261.3183)" style="fill:#303030;" cx="123.198" cy="166.359" rx="46.944" ry="46.943"/>
			<path d="M123.198,213.778c-26.146,0-47.418-21.272-47.418-47.418c0-26.147,21.272-47.419,47.418-47.419
				s47.418,21.272,47.418,47.419C170.616,192.506,149.344,213.778,123.198,213.778z M123.198,119.89
				c-25.623,0-46.468,20.846-46.468,46.469s20.845,46.468,46.468,46.468s46.468-20.845,46.468-46.468S148.821,119.89,123.198,119.89
				z"/>
		</g>
		<path style="opacity:0.6;fill:#262626;" d="M123.198,119.416c-25.926,0-46.943,21.017-46.943,46.943
			c0,25.926,21.017,46.944,46.943,46.944c25.926,0,46.944-21.017,46.944-46.944C170.141,140.433,149.124,119.416,123.198,119.416z
			 M123.198,208.034c-23.016,0-41.675-18.658-41.675-41.675s18.658-41.675,41.675-41.675s41.675,18.658,41.675,41.675
			S146.214,208.034,123.198,208.034z"/>
		
			<ellipse transform="matrix(0.9571 -0.2898 0.2898 0.9571 -42.9221 42.8389)" style="opacity:0.4;fill:#262626;" cx="123.198" cy="166.359" rx="32.333" ry="32.333"/>
		
			<ellipse transform="matrix(0.9925 -0.1222 0.1222 0.9925 -19.4901 16.3045)" style="fill:#262626;" cx="123.198" cy="167.07" rx="22.516" ry="22.516"/>
		<g>
			
				<ellipse transform="matrix(0.9871 -0.1602 0.1602 0.9871 -25.0569 21.8822)" style="fill:#A8A8A8;" cx="123.198" cy="166.359" rx="18.22" ry="18.22"/>
			<path style="fill:#565656;" d="M123.198,185.054c-10.309,0-18.696-8.387-18.696-18.695c0-10.309,8.387-18.696,18.696-18.696
				s18.696,8.387,18.696,18.696C141.893,176.668,133.507,185.054,123.198,185.054z M123.198,148.614
				c-9.785,0-17.746,7.961-17.746,17.746c0,9.785,7.961,17.745,17.746,17.745c9.785,0,17.746-7.96,17.746-17.745
				C140.943,156.575,132.983,148.614,123.198,148.614z"/>
		</g>
		<path style="opacity:0.5;fill:#A8A8A8;" d="M123.198,148.139c-10.063,0-18.22,8.158-18.22,18.22
			c0,10.063,8.158,18.221,18.22,18.221c10.063,0,18.22-8.158,18.22-18.221C141.418,156.296,133.261,148.139,123.198,148.139z
			 M123.198,181.981c-8.628,0-15.622-6.994-15.622-15.622c0-8.628,6.994-15.622,15.622-15.622c8.628,0,15.622,6.994,15.622,15.622
			C138.82,174.987,131.825,181.981,123.198,181.981z"/>
		<polygon style="opacity:0.5;fill:#A8A8A8;" points="141.418,165.409 127.929,165.409 140.372,160.201 139.638,158.447 
			127.28,163.62 136.753,154.147 135.41,152.804 125.869,162.344 130.987,149.859 129.229,149.139 124.148,161.536 124.148,148.138 
			122.248,148.138 122.248,161.63 117.039,149.185 115.286,149.918 120.46,162.278 110.986,152.804 109.642,154.147 
			119.181,163.686 106.699,158.57 105.978,160.329 118.374,165.409 104.978,165.409 104.978,167.309 118.467,167.309 
			106.024,172.517 106.757,174.271 119.115,169.098 109.642,178.571 110.986,179.914 120.525,170.376 115.409,182.858 
			117.167,183.578 122.248,171.181 122.248,184.58 124.148,184.58 124.148,171.089 129.357,183.533 131.109,182.8 125.936,170.44 
			135.41,179.914 136.753,178.571 127.215,169.033 139.697,174.148 140.417,172.389 128.022,167.309 141.418,167.309 		"/>
		<g>
			<g>
				<rect x="122.723" y="148.138" style="fill:#565656;" width="0.95" height="36.442"/>
				<rect x="104.978" y="165.884" style="fill:#565656;" width="36.44" height="0.95"/>
				
					<rect x="104.978" y="165.884" transform="matrix(0.7071 -0.7071 0.7071 0.7071 -81.5499 135.8394)" style="fill:#565656;" width="36.441" height="0.95"/>
				
					<rect x="122.723" y="148.139" transform="matrix(0.7071 -0.7071 0.7071 0.7071 -81.5504 135.843)" style="fill:#565656;" width="0.95" height="36.441"/>
			</g>
			<g>
				
					<rect x="104.977" y="165.884" transform="matrix(0.3792 -0.9253 0.9253 0.3792 -77.4523 217.2749)" style="fill:#565656;" width="36.441" height="0.95"/>
				
					<rect x="122.723" y="148.139" transform="matrix(0.3792 -0.9253 0.9253 0.3792 -77.4551 217.2657)" style="fill:#565656;" width="0.95" height="36.441"/>
				
					<rect x="104.978" y="165.884" transform="matrix(0.9225 -0.3859 0.3859 0.9225 -54.6605 60.437)" style="fill:#565656;" width="36.44" height="0.949"/>
				
					<rect x="122.723" y="148.139" transform="matrix(0.9225 -0.3861 0.3861 0.9225 -54.6785 60.4672)" style="fill:#565656;" width="0.951" height="36.441"/>
			</g>
		</g>
		
			<ellipse transform="matrix(0.9871 -0.1602 0.1602 0.9871 -25.1146 21.8868)" style="fill:#A8A8A8;" cx="123.198" cy="166.719" rx="9.889" ry="9.889"/>
		<g>
			<circle style="fill:#F15F6C;" cx="123.198" cy="166.359" r="8.849"/>
			<path style="fill:#B53948;" d="M123.198,175.682c-5.142,0-9.324-4.182-9.324-9.323c0-5.141,4.182-9.324,9.324-9.324
				c5.141,0,9.324,4.182,9.324,9.324C132.521,171.5,128.339,175.682,123.198,175.682z M123.198,157.986
				c-4.617,0-8.374,3.756-8.374,8.374c0,4.617,3.756,8.373,8.374,8.373s8.374-3.756,8.374-8.373
				C131.572,161.742,127.815,157.986,123.198,157.986z"/>
		</g>
		<path style="opacity:0.5;fill:#F47A7A;" d="M123.458,161.326c-2.986,0-5.407,2.421-5.407,5.407c0,2.986,2.421,5.407,5.407,5.407
			c2.986,0,5.407-2.421,5.407-5.407C128.865,163.747,126.444,161.326,123.458,161.326z"/>
		<g>
			<path style="fill:#F47A7A;" d="M123.458,161.679c-2.576,0-4.664,2.088-4.664,4.664c0,2.576,2.088,4.664,4.664,4.664
				c2.576,0,4.664-2.088,4.664-4.664C128.122,163.767,126.034,161.679,123.458,161.679z"/>
			<path style="fill:#B53948;" d="M123.458,171.482c-2.833,0-5.139-2.305-5.139-5.139c0-2.834,2.305-5.14,5.139-5.14
				c2.834,0,5.14,2.305,5.14,5.14C128.597,169.177,126.292,171.482,123.458,171.482z M123.458,162.154
				c-2.31,0-4.189,1.88-4.189,4.19c0,2.31,1.879,4.189,4.189,4.189c2.31,0,4.19-1.879,4.19-4.189
				C127.647,164.034,125.768,162.154,123.458,162.154z"/>
		</g>
		<path style="opacity:0.5;fill:#F47A7A;" d="M123.458,161.679c1.608,0,2.912,1.303,2.912,2.912c0,1.608-1.304,2.912-2.912,2.912
			c-1.608,0-2.912-1.304-2.912-2.912C120.546,162.983,121.85,161.679,123.458,161.679c-2.576,0-4.664,2.088-4.664,4.664
			c0,2.576,2.088,4.664,4.664,4.664s4.664-2.088,4.664-4.664C128.122,163.767,126.034,161.679,123.458,161.679z"/>
	</g>
	<path style="opacity:0.5;fill:#D35E6F;" d="M238.434,170.583c-38.133,0-68.24-4.019-76.837-5.296
		c-1.365-0.203-2.342-1.958-2.18-3.901l0.776-9.333c0.158-1.903,1.356-3.274,2.693-3.076c13.254,1.968,79.055,10.637,145.427,0.023
		c1.345-0.215,2.56,1.152,2.717,3.07l0.766,9.335c0.159,1.93-0.814,3.685-2.168,3.902
		C284.957,169.253,260.365,170.583,238.434,170.583z"/>
	<path style="opacity:0.5;fill:#D35E6F;" d="M454.118,156.046c-0.155-4.671-0.108-9.349-0.098-14.024
		c-0.037,0.016-0.073,0.019-0.11,0.037c-23.255,11.498-56.286,6.385-65.799,4.563c-1.507-0.289-2.922,1.015-3.258,2.989
		l-1.263,7.425c-0.358,2.107,0.637,4.195,2.225,4.65c9.63,2.762,41.693,10.704,68.328,2.881
		C454.172,161.727,454.212,158.892,454.118,156.046z"/>
	<path style="opacity:0.5;fill:#D35E6F;" d="M91.036,159.595l-0.655-6.585c-0.278-2.792-2.543-5.022-5.436-5.366
		c-28.05-3.33-47.061-9.791-57.083-13.992c-3.74,9.905-9.826,18.837-12.212,29.256c-0.004,0.017-0.011,0.029-0.015,0.045
		c0.503,0.276,1.052,0.492,1.644,0.628c11.835,2.713,39.448,7.585,68.721,2.47C89.163,165.498,91.342,162.673,91.036,159.595z"/>
	<g>
		<path style="fill:#FFF47E;" d="M238.434,175.949c-38.133,0-68.24-4.019-76.837-5.296c-1.365-0.203-2.342-1.958-2.18-3.901
			l0.776-9.333c0.158-1.903,1.356-3.274,2.693-3.076c13.254,1.967,79.055,10.637,145.427,0.023c1.345-0.215,2.56,1.152,2.717,3.07
			l0.766,9.335c0.159,1.93-0.814,3.685-2.168,3.902C284.957,174.619,260.365,175.949,238.434,175.949z"/>
		<path style="fill:#F2AC20;" d="M238.434,176.423c-38.239,0-68.532-4.057-76.905-5.301c-1.608-0.238-2.768-2.216-2.584-4.41
			l0.775-9.332c0.105-1.264,0.625-2.354,1.428-2.99c0.547-0.432,1.174-0.611,1.808-0.517c12.593,1.869,78.781,10.66,145.282,0.023
			c0.64-0.099,1.277,0.072,1.829,0.507c0.809,0.634,1.332,1.725,1.436,2.994l0.766,9.335c0.179,2.176-0.972,4.154-2.566,4.41
			C287.794,174.646,263.815,176.423,238.434,176.423z M162.631,154.799c-0.382,0-0.691,0.175-0.893,0.336
			c-0.588,0.466-0.989,1.335-1.072,2.324l-0.775,9.332c-0.14,1.676,0.673,3.229,1.777,3.393c8.358,1.24,38.592,5.29,76.766,5.29
			c25.332,0,49.26-1.773,71.12-5.27c1.096-0.175,1.906-1.729,1.77-3.394l-0.766-9.335c-0.082-0.991-0.483-1.86-1.075-2.324
			c-0.238-0.186-0.625-0.39-1.094-0.315c-66.637,10.654-132.954,1.851-145.572-0.023
			C162.753,154.803,162.691,154.799,162.631,154.799z"/>
	</g>
	<g>
		<path style="fill:#FFF47E;" d="M459.554,164.665c-0.455-3.766-1.192-9.85-1.705-14.097c-0.295-2.439-2.195-3.856-3.938-2.994
			c-23.255,11.498-56.286,6.385-65.799,4.563c-1.507-0.289-2.922,1.015-3.258,2.989l-1.263,7.425
			c-0.358,2.106,0.637,4.195,2.225,4.65c10.025,2.875,44.365,11.374,71.58,1.847C458.857,168.536,459.793,166.647,459.554,164.665z"
			/>
		<path style="fill:#F2AC20;" d="M428.41,173.91c-18.866,0-36.159-4.37-42.724-6.253c-1.811-0.52-2.961-2.845-2.563-5.186
			l1.263-7.426c0.212-1.242,0.83-2.3,1.697-2.902c0.65-0.451,1.384-0.615,2.119-0.474c9.53,1.827,42.413,6.894,65.499-4.522
			c0.85-0.418,1.773-0.404,2.602,0.045c1.083,0.585,1.837,1.827,2.017,3.319l1.705,14.097c0.267,2.199-0.795,4.3-2.47,4.887
			C448.258,172.751,438.125,173.91,428.41,173.91z M387.696,152.572c-0.37,0-0.735,0.12-1.072,0.354
			c-0.659,0.456-1.133,1.288-1.302,2.28l-1.263,7.426c-0.314,1.846,0.55,3.73,1.888,4.114c9.877,2.832,44.206,11.339,71.293,1.855
			c1.243-0.436,2.052-2.139,1.841-3.877v-0.001l-1.705-14.096c-0.144-1.188-0.714-2.159-1.526-2.598
			c-0.559-0.301-1.155-0.314-1.729-0.029c-23.352,11.547-56.497,6.443-66.098,4.603
			C387.914,152.582,387.804,152.572,387.696,152.572z"/>
	</g>
	<g>
		<path style="fill:#FFF47E;" d="M12.555,160.398l4.937-19.356c0.926-3.632,5.047-5.578,8.587-4.033
			c9.498,4.148,29.064,11.178,58.742,14.701c2.893,0.343,5.159,2.574,5.436,5.365l0.655,6.585c0.306,3.079-1.873,5.903-5.035,6.455
			c-29.273,5.115-56.886,0.243-68.721-2.47C13.794,166.877,11.732,163.627,12.555,160.398z"/>
		<path style="fill:#F2AC20;" d="M59.078,172.814c-18.82,0.001-34.586-2.997-42.029-4.704c-1.792-0.411-3.293-1.479-4.225-3.008
			c-0.891-1.461-1.149-3.173-0.729-4.822l0.46,0.118l-0.46-0.118l4.937-19.355c0.468-1.833,1.735-3.373,3.479-4.226
			c1.812-0.884,3.91-0.93,5.758-0.124c9.052,3.953,28.703,11.115,58.608,14.665c3.095,0.367,5.556,2.803,5.852,5.79l0.655,6.585
			c0.33,3.32-2.053,6.382-5.425,6.97C76.7,172.202,67.577,172.814,59.078,172.814z M23.525,136.95c-0.889,0-1.777,0.201-2.596,0.602
			c-1.493,0.73-2.577,2.045-2.976,3.607l-4.938,19.356c-0.356,1.398-0.136,2.852,0.62,4.091c0.799,1.309,2.086,2.224,3.626,2.577
			c10.75,2.465,38.944,7.634,68.535,2.465c2.885-0.504,4.925-3.114,4.644-5.94l-0.655-6.585c-0.253-2.548-2.365-4.626-5.019-4.942
			c-30.026-3.563-49.777-10.763-58.877-14.737C25.133,137.115,24.328,136.95,23.525,136.95z"/>
	</g>
	<path style="fill:#FFF47E;" d="M160.193,160.093c0.158-1.903,1.356-3.274,2.693-3.076c13.254,1.968,79.055,10.637,145.427,0.024
		c1.345-0.215,2.56,1.152,2.717,3.07l0.666,8.119c0.101-0.458,0.142-0.951,0.1-1.458l-0.766-9.335
		c-0.157-1.918-1.372-3.285-2.717-3.07c-66.373,10.613-132.174,1.944-145.427-0.023c-1.336-0.199-2.535,1.173-2.693,3.076
		l-0.776,9.333c-0.043,0.512-0.002,1.009,0.1,1.47L160.193,160.093z"/>
	<path style="fill:#FFF47E;" d="M384.854,157.8c0.336-1.974,1.751-3.278,3.258-2.989c9.512,1.822,42.544,6.935,65.799-4.563
		c1.742-0.862,3.643,0.555,3.938,2.994c0.475,3.925,1.139,9.415,1.597,13.198c0.133-0.559,0.183-1.16,0.109-1.775
		c-0.456-3.766-1.192-9.85-1.705-14.097c-0.295-2.439-2.195-3.856-3.938-2.994c-23.255,11.498-56.286,6.385-65.799,4.563
		c-1.507-0.289-2.922,1.015-3.258,2.989l-1.263,7.425c-0.125,0.733-0.077,1.459,0.094,2.119L384.854,157.8z"/>
	<path style="fill:#FFF47E;" d="M12.555,163.072l4.937-19.356c0.926-3.632,5.047-5.578,8.587-4.033
		c9.498,4.148,29.064,11.178,58.741,14.701c2.893,0.343,5.159,2.574,5.437,5.366l0.562,5.654c0.116-0.562,0.152-1.147,0.093-1.743
		l-0.655-6.585c-0.278-2.792-2.544-5.022-5.437-5.366c-29.677-3.523-49.243-10.553-58.741-14.701c-3.54-1.546-7.661,0.4-8.587,4.033
		l-4.937,19.355c-0.24,0.941-0.228,1.881-0.018,2.764C12.545,163.132,12.548,163.102,12.555,163.072z"/>
	<path style="fill:#FFCF57;" d="M311.422,162.206c-0.385,0.868-1.023,1.498-1.793,1.622c-24.671,3.947-49.263,5.277-71.195,5.277
		c-38.133,0-68.24-4.019-76.837-5.296c-0.774-0.115-1.414-0.739-1.802-1.604l-0.378,4.548c-0.162,1.943,0.815,3.698,2.18,3.901
		c8.597,1.277,38.703,5.296,76.837,5.296c21.931,0,46.523-1.33,71.195-5.276c1.354-0.217,2.327-1.971,2.168-3.902L311.422,162.206z"
		/>
	<path style="fill:#FFCF57;" d="M459.554,164.665c-0.456-3.766-1.192-9.85-1.705-14.097c-0.132-1.089-0.593-1.956-1.208-2.525
		c0.412,3.409,0.859,7.099,1.171,9.68c0.234,1.936-0.681,3.782-2.107,4.282c-26.592,9.309-60.145,1.005-69.94-1.804
		c-0.638-0.183-1.169-0.644-1.56-1.256l-0.613,3.607c-0.358,2.106,0.637,4.195,2.225,4.65c10.025,2.875,44.365,11.374,71.58,1.847
		C458.857,168.536,459.793,166.647,459.554,164.665z"/>
	<path style="fill:#FFCF57;" d="M90.912,163.662l-0.655-6.585c-0.192-1.934-1.351-3.581-2.999-4.536l0.348,3.498
		c0.28,2.819-1.715,5.406-4.611,5.912c-26.808,4.684-52.095,0.222-62.934-2.262c-3.078-0.706-4.967-3.682-4.213-6.639l3.913-15.34
		c-1.084,0.795-1.913,1.938-2.269,3.333l-4.937,19.355c-0.823,3.229,1.239,6.479,4.6,7.249c11.835,2.713,39.448,7.585,68.721,2.47
		C89.039,169.565,91.218,166.74,90.912,163.662z"/>
	<path style="opacity:0.5;fill:#D35E6F;" d="M145.122,85.753c-13.154,15.059-4.832,21.376,16.496,22.221
		c17.451,0.691,85.811,3.488,182.721-2.914c29.801-1.969,18.507-18.753,4.683-55.893c-13.379-35.946-28.168-36.174-91.188-35.903
		c-34.572,0.149-33.793-1.964-66.329,27.103C173.805,56.182,158.276,70.695,145.122,85.753z"/>
	<g>
		<path style="fill:#C2E0F2;" d="M150.65,83.944c-12.513,14.221-4.597,20.186,15.693,20.984c16.601,0.653,81.63,3.294,173.819-2.751
			c28.349-1.859,17.605-17.71,4.455-52.783c-12.727-33.946-26.795-34.161-86.745-33.905c-32.887,0.141-32.146-1.855-63.097,25.595
			C177.935,56.018,163.163,69.723,150.65,83.944z"/>
		<path style="fill:#B53948;" d="M225.079,106.54c-19.874,0-39.333-0.373-58.317-1.12l-0.438-0.017
			c-12.629-0.497-19.704-2.923-21.631-7.418c-1.549-3.615,0.282-8.312,5.601-14.355l0,0c13.135-14.929,28.989-29.443,44.165-42.902
			c28.665-25.422,30.543-25.706,56.29-25.706c0.598,0,1.208,0,1.836,0c1.662,0,3.419-0.001,5.285-0.009
			c59.983-0.248,74.245-0.317,87.19,34.213c1.757,4.685,3.434,8.932,5.054,13.04c6.551,16.596,10.878,27.561,6.825,33.957
			c-2.403,3.793-7.724,5.835-16.747,6.427C300.692,105.241,262.17,106.54,225.079,106.54z M251.483,15.973
			c-27.683,0-28.801,0.995-56.394,25.466c-15.154,13.44-30.982,27.929-44.083,42.819c-4.981,5.661-6.811,10.154-5.44,13.354
			c1.743,4.066,8.739,6.368,20.795,6.842l0.438,0.018c54.383,2.139,112.699,1.208,173.331-2.768
			c8.695-0.571,13.78-2.472,16.007-5.988c3.794-5.989-0.463-16.774-6.906-33.101c-1.547-3.92-3.301-8.363-5.06-13.054
			c-12.714-33.911-26.834-33.851-86.298-33.597c-2.229,0.009-4.306,0.008-6.245,0.009C251.581,15.973,251.53,15.973,251.483,15.973z
			"/>
	</g>
	<g>
		<path style="fill:#C2E0F2;" d="M150.65,83.944c-12.513,14.221-4.597,20.186,15.693,20.984c16.601,0.653,81.63,3.294,173.819-2.751
			c28.349-1.859,17.605-17.71,4.455-52.783c-12.727-33.946-26.795-34.161-86.745-33.905c-32.887,0.141-32.146-1.855-63.097,25.595
			C177.935,56.018,163.163,69.723,150.65,83.944z"/>
		<path style="fill:#B53948;" d="M225.079,106.54c-19.874,0-39.333-0.373-58.317-1.12l-0.438-0.017
			c-12.629-0.497-19.704-2.923-21.631-7.418c-1.549-3.615,0.282-8.312,5.601-14.355l0,0c13.135-14.929,28.989-29.443,44.165-42.902
			c28.665-25.422,30.543-25.706,56.29-25.706c0.598,0,1.208,0,1.836,0c1.662,0,3.419-0.001,5.285-0.009
			c59.983-0.248,74.245-0.317,87.19,34.213c1.757,4.685,3.434,8.932,5.054,13.04c6.551,16.596,10.878,27.561,6.825,33.957
			c-2.403,3.793-7.724,5.835-16.747,6.427C300.692,105.241,262.17,106.54,225.079,106.54z M251.483,15.973
			c-27.683,0-28.801,0.995-56.394,25.466c-15.154,13.44-30.982,27.929-44.083,42.819c-4.981,5.661-6.811,10.154-5.44,13.354
			c1.743,4.066,8.739,6.368,20.795,6.842l0.438,0.018c54.383,2.139,112.699,1.208,173.331-2.768
			c8.695-0.571,13.78-2.472,16.007-5.988c3.794-5.989-0.463-16.774-6.906-33.101c-1.547-3.92-3.301-8.363-5.06-13.054
			c-12.714-33.911-26.834-33.851-86.298-33.597c-2.229,0.009-4.306,0.008-6.245,0.009C251.581,15.973,251.53,15.973,251.483,15.973z
			"/>
	</g>
	<path style="opacity:0.5;fill:#7CBAE0;" d="M344.616,49.394c-11.939-31.842-25.058-34.005-76.12-33.939
		c39.088,0.053,49.506,2.38,59.003,27.71c10.737,28.637,19.509,41.579-3.638,43.097c-75.271,4.936-128.367,2.78-141.921,2.246
		c-16.566-0.651-23.03-5.522-12.813-17.134c10.217-11.611,22.278-22.801,36.027-34.994c21.111-18.723,24.174-20.667,40.261-20.867
		c-20.877,0.163-24.215,2.133-50.642,25.57c-16.839,14.934-31.611,28.639-44.124,42.86c-12.513,14.221-4.597,20.186,15.693,20.984
		c16.601,0.653,81.63,3.294,173.819-2.751C368.51,100.318,357.766,84.467,344.616,49.394z"/>
	<g>
		<g>
			<path style="fill:#383838;" d="M259.376,15.485c4.154-0.017,8.061-0.032,11.744-0.031c-4.074-0.002-8.401,0.015-12.995,0.035
				C258.543,15.487,258.945,15.486,259.376,15.485z"/>
			<path style="fill:#262626;" d="M258.126,15.963L258.126,15.963l-0.004-0.95h0.001h0.002c4.594-0.019,8.922-0.036,12.994-0.034
				v0.95c-3.706-0.015-7.588,0.015-11.741,0.031l-1.251,0.003H258.126z"/>
		</g>
		<g>
			<path style="fill:#383838;" d="M344.616,49.394c-11.346-30.26-23.758-33.716-68.785-33.929c40.338,0.2,51.492,3.29,61.69,29.879
				c11.847,30.889,21.525,44.848-4.013,46.485c-83.049,5.324-141.632,2.998-156.587,2.423c-18.278-0.703-25.409-5.957-14.137-18.481
				c11.273-12.524,24.581-24.594,39.75-37.746c24.334-21.098,26.927-22.444,46.885-22.528c-24.576,0.017-26.61,0.721-54.646,25.586
				c-16.839,14.934-31.611,28.639-44.124,42.86c-12.513,14.221-4.597,20.186,15.693,20.984c16.601,0.653,81.63,3.294,173.819-2.751
				C368.51,100.318,357.766,84.467,344.616,49.394z"/>
			<path style="fill:#262626;" d="M225.079,106.54c-19.874,0-39.333-0.373-58.317-1.12l-0.438-0.017
				c-12.629-0.497-19.704-2.923-21.631-7.418c-1.549-3.615,0.282-8.312,5.601-14.355c13.135-14.929,28.989-29.442,44.165-42.902
				c27.882-24.728,29.937-25.689,54.961-25.706c-0.002,0-0.002,0-0.002,0c0.002,0,0.002,0,0.002,0l0.002,0.95
				c-19.659,0.083-22.27,1.339-46.576,22.412c-13.646,11.831-27.902,24.589-39.707,37.705c-4.44,4.933-6.093,8.848-4.915,11.636
				c1.52,3.597,7.817,5.633,18.717,6.053l0.376,0.015c48.981,1.886,101.521,1.066,156.162-2.437
				c7.88-0.506,12.467-2.199,14.438-5.331c3.31-5.262-0.504-14.71-6.278-29.011c-1.393-3.453-2.973-7.366-4.559-11.5
				c-10.143-26.445-21.368-29.376-61.249-29.574l0.006-0.95c45.056,0.212,57.74,3.604,69.226,34.237
				c1.757,4.685,3.434,8.932,5.054,13.04c6.551,16.596,10.878,27.561,6.825,33.957c-2.403,3.793-7.724,5.835-16.747,6.427
				C300.692,105.241,262.17,106.54,225.079,106.54z M230.577,17.123c-9.998,2.089-17.029,7.945-35.488,24.316
				c-15.154,13.44-30.982,27.929-44.083,42.819c-4.981,5.661-6.811,10.154-5.44,13.354c1.743,4.066,8.739,6.368,20.795,6.842
				l0.438,0.018c54.383,2.139,112.699,1.208,173.331-2.768c8.695-0.571,13.78-2.472,16.007-5.988
				c3.794-5.989-0.463-16.774-6.906-33.101c-1.547-3.92-3.301-8.363-5.06-13.054c-6.607-17.621-13.645-26.064-27.293-30.075
				c9.979,4.022,15.673,11.573,21.086,25.689c1.583,4.126,3.093,7.866,4.553,11.485c5.883,14.572,9.77,24.199,6.2,29.873
				c-2.146,3.411-6.969,5.246-15.18,5.772c-54.673,3.504-107.246,4.324-156.259,2.438l-0.377-0.014
				c-11.459-0.442-17.856-2.611-19.556-6.632c-1.353-3.203,0.311-7.338,5.084-12.642c11.841-13.153,26.122-25.935,39.792-37.787
				C216.517,25.274,223.387,19.664,230.577,17.123z"/>
		</g>
		<g>
			<path style="fill:#383838;" d="M337.521,45.344c5.912,15.416,11.283,26.614,12.007,34.169c1.447-7.363-4.832-19.746-11.88-38.124
				c-2.773-7.229-5.621-12.71-9.102-16.879c-10.349-7.607-25.626-8.918-52.715-9.046C316.169,15.665,327.324,18.755,337.521,45.344z
				"/>
			<path style="fill:#383838;" d="M340.288,98.222c-92.189,6.046-157.218,3.404-173.818,2.751
				c-12.378-0.487-20.138-2.902-21.477-7.937c-2.172,7.764,6.085,11.291,21.349,11.891c16.601,0.653,81.63,3.294,173.819-2.751
				c14.026-0.92,18.479-5.268,17.809-13.671C356.966,94.34,351.919,97.46,340.288,98.222z"/>
			<path style="fill:#383838;" d="M162.912,71.818c-4.517,5.019-6.073,8.868-5.146,11.727c0.69-2.201,2.322-4.776,5.018-7.772
				c11.273-12.524,24.581-24.594,39.75-37.746c24.334-21.098,26.927-22.444,46.885-22.528c-24.576,0.017-26.61,0.721-54.646,25.586
				c-4.863,4.313-9.533,8.517-14.048,12.668C174.326,59.783,168.375,65.748,162.912,71.818z"/>
		</g>
	</g>
	<g>
		<g style="opacity:0.5;">
			<path style="fill:#D35E6F;" d="M63.35,132.62c-8.033,8.525-18.826,11.284-24.108,6.163c-5.281-5.122-3.05-16.186,4.983-24.711
				c8.033-8.525,18.827-11.284,24.108-6.162C73.614,113.031,71.383,124.094,63.35,132.62z"/>
		</g>
		<g>
			<g>
				<path style="fill:#FFFFFF;" d="M60.072,131.458c-8.019,7.82-18.442,10.018-23.281,4.912c-4.838-5.107-2.259-15.586,5.76-23.406
					c8.019-7.82,18.443-10.019,23.281-4.912C70.671,113.16,68.092,123.639,60.072,131.458z"/>
				<path style="fill:#BCBCBC;" d="M43.937,139.599c-0.096,0-0.19-0.001-0.285-0.003c-2.972-0.058-5.464-1.061-7.206-2.9
					c-5.007-5.286-2.418-16.085,5.774-24.073c5.116-4.99,11.406-7.926,16.754-7.798c2.971,0.059,5.462,1.062,7.203,2.9
					c5.008,5.286,2.418,16.085-5.773,24.073C55.379,136.699,49.246,139.599,43.937,139.599z M58.686,105.773
					c-5.065,0-10.95,2.8-15.803,7.531c-7.821,7.627-10.399,17.827-5.746,22.739c1.562,1.65,3.822,2.549,6.534,2.603
					c0.089,0.002,0.179,0.003,0.268,0.003c5.065,0,10.95-2.799,15.803-7.531c7.821-7.626,10.399-17.827,5.745-22.739
					c-1.562-1.649-3.82-2.549-6.531-2.603C58.866,105.774,58.776,105.773,58.686,105.773z"/>
			</g>
		</g>
		<path style="fill:#E5E5E5;" d="M55.828,134.211c-10.492,7.52-18.791,0.128-15.287,1.279c11.232,3.689,22.51-9.561,24.788-17.433
			C66.984,112.336,69.05,124.734,55.828,134.211z M65.833,108.052c-4.838-5.107-15.261-2.908-23.281,4.912
			c-8.019,7.82-10.598,18.299-5.76,23.406c4.838,5.107,15.261,2.908,23.281-4.912C68.092,123.639,70.671,113.16,65.833,108.052z"/>
		<path style="fill:#E5E5E5;" d="M57.68,128.928c-7.036,6.862-16.125,8.85-20.301,4.44c-4.176-4.41-1.857-13.548,5.179-20.41
			c7.036-6.862,16.125-8.85,20.301-4.44C67.034,112.929,64.715,122.066,57.68,128.928z"/>
		<g>
			<g>
				<path style="fill:#FFF47E;" d="M57.044,128.167c-6.749,6.526-15.858,8.016-20.345,3.329c-4.487-4.687-2.653-13.778,4.096-20.303
					c6.749-6.526,15.858-8.016,20.344-3.329C65.627,112.551,63.793,121.641,57.044,128.167z"/>
				<path style="fill:#F2AC20;" d="M43.722,134.703c-0.086,0-0.173,0-0.258-0.002c-2.902-0.057-5.36-1.051-7.107-2.878
					c-4.659-4.868-2.816-14.276,4.109-20.972c4.103-3.968,9.323-6.308,13.91-6.194c2.902,0.057,5.361,1.051,7.108,2.878
					c4.66,4.868,2.817,14.276-4.109,20.972C53.348,132.402,48.264,134.703,43.722,134.703z M54.115,105.605
					c-4.3,0-9.136,2.204-12.989,5.929c-6.551,6.334-8.382,15.141-4.083,19.633c1.569,1.639,3.795,2.534,6.439,2.585
					c4.342,0.111,9.306-2.131,13.231-5.926c6.552-6.335,8.383-15.142,4.083-19.633c-1.57-1.64-3.796-2.534-6.44-2.585
					C54.276,105.606,54.196,105.605,54.115,105.605z"/>
			</g>
		</g>
		<path style="fill:#FFCF57;" d="M61.14,107.864c-4.487-4.687-13.595-3.197-20.344,3.329c-6.749,6.526-8.583,15.616-4.096,20.303
			c4.487,4.687,13.595,3.197,20.345-3.329C63.793,121.641,65.627,112.551,61.14,107.864z M53.916,125.048
			c-5.505,5.335-12.85,6.641-16.406,2.917c-3.556-3.725-1.975-11.069,3.53-16.404c5.505-5.335,12.85-6.641,16.406-2.917
			C61.001,112.368,59.421,119.713,53.916,125.048z"/>
		<g>
			<path style="fill:#F8F8F8;" d="M57.399,112.709c-0.097-0.989-0.506-1.959-1.147-2.762c-1.276-1.597-3.605-2.271-5.386-1.615
				c-0.168,0.062-0.068,0.297,0.103,0.272c1.578-0.23,3.345,0.492,4.267,1.917c0.419,0.648,0.649,1.41,0.644,2.153
				c-0.002,0.387-0.052,0.782-0.146,1.151c-0.096,0.38-0.369,0.72-0.4,1.113c-0.047,0.598,0.811,0.979,1.251,0.67
				C57.385,115.047,57.491,113.646,57.399,112.709z"/>
			<path style="fill:#F8F8F8;" d="M56.11,117.275c-0.005-0.076-0.01-0.152-0.015-0.228c-0.037-0.155-0.111-0.292-0.222-0.412
				c-0.087-0.099-0.188-0.175-0.306-0.228c-0.117-0.074-0.243-0.12-0.378-0.138c-0.135-0.028-0.266-0.027-0.392,0.005
				c-0.123,0.011-0.236,0.05-0.338,0.117c-0.057,0.047-0.115,0.094-0.173,0.142c-0.101,0.111-0.16,0.243-0.177,0.397
				c0.005,0.076,0.01,0.152,0.015,0.228c0.037,0.155,0.111,0.292,0.222,0.412c0.087,0.099,0.188,0.175,0.305,0.228
				c0.117,0.074,0.243,0.12,0.379,0.138c0.135,0.029,0.265,0.027,0.392-0.005c0.123-0.011,0.236-0.05,0.338-0.117
				c0.057-0.047,0.115-0.095,0.173-0.142C56.035,117.561,56.093,117.428,56.11,117.275z"/>
		</g>
	</g>
	<g>
		<g style="opacity:0.5;">
			<path style="fill:#D35E6F;" d="M434.753,135.647c5.397,7.199,13.397,10.234,17.869,6.78c4.472-3.454,3.722-12.09-1.675-19.289
				c-5.397-7.199-13.397-10.234-17.868-6.78C428.606,119.813,429.356,128.448,434.753,135.647z"/>
		</g>
		<g>
			<g>
				<path style="fill:#FFFFFF;" d="M436.811,134.166c4.956,6.611,12.303,9.398,16.41,6.226c4.107-3.172,3.418-11.103-1.538-17.714
					c-4.956-6.611-12.303-9.398-16.41-6.226C431.167,119.624,431.855,127.555,436.811,134.166z"/>
				<path style="fill:#BCBCBC;" d="M449.128,142.176c-0.419,0-0.849-0.03-1.29-0.089c-3.961-0.538-8.225-3.393-11.407-7.637l0,0
					c-5.103-6.807-5.752-15.049-1.447-18.374c1.506-1.162,3.472-1.622,5.672-1.319c3.961,0.537,8.225,3.392,11.407,7.636
					c5.103,6.807,5.752,15.05,1.448,18.375C452.306,141.699,450.809,142.176,449.128,142.176z M439.371,115.618
					c-1.471,0-2.771,0.41-3.807,1.21c-3.896,3.01-3.166,10.659,1.627,17.053l0,0c3.032,4.045,7.06,6.761,10.775,7.265
					c1.95,0.265,3.665-0.125,4.964-1.129c3.896-3.01,3.165-10.66-1.628-17.054c-3.032-4.045-7.06-6.76-10.774-7.265
					C440.132,115.644,439.746,115.618,439.371,115.618z"/>
			</g>
		</g>
		<path style="fill:#E5E5E5;" d="M434.503,123.801c0.765,5.996,7.479,16.935,16.085,15.523c2.685-0.44-4.205,4.004-10.997-2.669
			C431.033,128.245,433.947,119.443,434.503,123.801z M436.811,134.166c4.956,6.611,12.303,9.398,16.41,6.226
			c4.107-3.172,3.418-11.103-1.538-17.714c-4.956-6.611-12.303-9.398-16.41-6.226C431.167,119.624,431.855,127.555,436.811,134.166z
			"/>
		<path style="fill:#E5E5E5;" d="M438.843,132.594c4.348,5.801,10.747,8.283,14.291,5.544c3.545-2.74,2.893-9.663-1.455-15.464
			c-4.348-5.801-10.747-8.283-14.291-5.543C433.843,119.869,434.495,126.793,438.843,132.594z"/>
		<g>
			<g>
				<path style="fill:#FFF47E;" d="M439.392,132.111c4.177,5.523,10.647,7.645,14.449,4.739c3.803-2.906,3.5-9.74-0.678-15.264
					c-4.177-5.523-10.647-7.645-14.449-4.738C434.912,119.754,435.215,126.588,439.392,132.111z"/>
				<path style="fill:#F2AC20;" d="M449.781,138.628c-0.407,0-0.825-0.029-1.251-0.087c-3.399-0.463-6.957-2.76-9.515-6.143
					c-4.328-5.722-4.592-12.868-0.588-15.928c1.508-1.153,3.447-1.607,5.601-1.313c3.4,0.463,6.957,2.759,9.516,6.143
					c4.328,5.722,4.592,12.868,0.588,15.928C452.92,138.153,451.434,138.628,449.781,138.628z M442.781,116.02
					c-1.446,0-2.736,0.409-3.778,1.205c-3.589,2.743-3.245,9.293,0.768,14.6l0,0c2.409,3.186,5.732,5.345,8.887,5.775
					c1.899,0.26,3.592-0.131,4.896-1.127c3.589-2.743,3.245-9.293-0.768-14.6c-2.41-3.187-5.733-5.345-8.887-5.775
					C443.517,116.046,443.144,116.02,442.781,116.02z"/>
			</g>
		</g>
		<path style="fill:#FFCF57;" d="M439.392,132.111c4.177,5.523,10.647,7.645,14.45,4.738c3.803-2.906,3.5-9.74-0.678-15.264
			c-4.177-5.523-10.647-7.645-14.449-4.738C434.912,119.754,435.215,126.588,439.392,132.111z M441.319,117.837
			c3.015-2.31,8.22-0.524,11.626,3.991c3.406,4.514,3.723,10.047,0.708,12.357c-3.015,2.31-8.22,0.524-11.626-3.991
			C438.621,125.679,438.304,120.147,441.319,117.837z"/>
		<g>
			<path style="fill:#F8F8F8;" d="M440.891,120.805c0.183-0.71,0.592-1.371,1.15-1.883c1.112-1.019,2.886-1.245,4.109-0.564
				c0.115,0.064,0.016,0.224-0.106,0.187c-1.124-0.347-2.494-0.021-3.328,0.912c-0.379,0.424-0.633,0.954-0.714,1.496
				c-0.042,0.282-0.051,0.576-0.025,0.855c0.027,0.288,0.187,0.567,0.165,0.856c-0.034,0.441-0.702,0.621-0.988,0.346
				C440.635,122.51,440.717,121.477,440.891,120.805z"/>
			<path style="fill:#F8F8F8;" d="M441.311,124.279c0.012-0.055,0.024-0.11,0.037-0.164c0.045-0.109,0.114-0.201,0.209-0.275
				c0.074-0.063,0.157-0.106,0.249-0.131c0.093-0.041,0.191-0.06,0.292-0.058c0.101-0.005,0.197,0.011,0.285,0.048
				c0.089,0.022,0.166,0.063,0.233,0.123c0.037,0.041,0.073,0.082,0.11,0.123c0.061,0.092,0.089,0.196,0.084,0.31
				c-0.012,0.055-0.024,0.109-0.036,0.164c-0.045,0.109-0.114,0.201-0.209,0.275c-0.074,0.063-0.157,0.106-0.249,0.131
				c-0.093,0.041-0.19,0.06-0.292,0.058c-0.102,0.005-0.197-0.011-0.285-0.049c-0.089-0.022-0.166-0.063-0.233-0.124
				c-0.036-0.041-0.073-0.082-0.11-0.123C441.334,124.496,441.306,124.393,441.311,124.279z"/>
		</g>
	</g>
	<g>
		<path style="opacity:0.5;fill:#D35E6F;" d="M177.623,172.22h-18.237c-1.165,0-2.129-0.948-2.202-2.167
			c-1.07-18.079-15.44-32.443-32.951-32.443c-17.51,0-31.88,14.364-32.95,32.443c-0.072,1.219-1.037,2.167-2.202,2.167H70.845
			c-1.267,0-2.269-1.113-2.217-2.441c1.225-31.044,25.698-55.902,55.606-55.902c29.908,0,54.382,24.859,55.606,55.902
			C179.893,171.107,178.891,172.22,177.623,172.22z"/>
		<g>
			<path style="fill:#E54A5C;" d="M177.623,175.208h-18.237c-1.165,0-2.129-0.948-2.202-2.166
				c-1.07-18.079-15.44-32.443-32.951-32.443c-17.51,0-31.88,14.364-32.95,32.443c-0.072,1.219-1.037,2.166-2.202,2.166H70.845
				c-1.267,0-2.269-1.113-2.217-2.441c1.225-31.044,25.698-55.902,55.606-55.902c29.908,0,54.382,24.859,55.606,55.902
				C179.893,174.094,178.891,175.208,177.623,175.208z"/>
			<path style="fill:#B53948;" d="M177.623,175.682h-18.236c-1.414,0-2.589-1.148-2.677-2.613
				c-1.061-17.941-15.327-31.996-32.476-31.996c-17.148,0-31.414,14.054-32.476,31.996c-0.085,1.466-1.261,2.613-2.676,2.613H70.846
				c-0.717,0-1.392-0.29-1.899-0.818c-0.534-0.556-0.824-1.327-0.793-2.116c1.247-31.602,25.88-56.358,56.081-56.358
				c30.201,0,54.835,24.756,56.082,56.358c0.031,0.789-0.259,1.561-0.793,2.116C179.015,175.392,178.34,175.682,177.623,175.682z
				 M124.234,140.123c17.651,0,32.333,14.447,33.424,32.89c0.058,0.964,0.816,1.719,1.728,1.719h18.236
				c0.456,0,0.888-0.187,1.214-0.527c0.356-0.37,0.549-0.889,0.528-1.42c-1.227-31.09-25.443-55.445-55.132-55.445
				s-53.904,24.355-55.131,55.445c-0.021,0.532,0.172,1.05,0.528,1.42c0.327,0.34,0.758,0.527,1.214,0.527h18.236
				c0.912,0,1.671-0.755,1.728-1.719C91.902,154.57,106.584,140.123,124.234,140.123z"/>
		</g>
		<path style="opacity:0.5;fill:#E54A5C;" d="M124.234,125.216c24.049,0,43.93,18.632,46.725,42.584
			c0.209-0.328,0.326-0.724,0.309-1.147c-1.036-25.74-21.737-46.351-47.034-46.351c-25.297,0-45.998,20.612-47.033,46.351
			c-0.017,0.423,0.1,0.819,0.309,1.147C80.304,143.848,100.186,125.216,124.234,125.216z"/>
		<path style="opacity:0.5;fill:#D35E6F;" d="M124.234,116.865c-29.908,0-54.381,24.859-55.606,55.902
			c-0.052,1.327,0.95,2.441,2.217,2.441h18.237c1.165,0,2.13-0.948,2.202-2.167c1.07-18.079,15.44-32.443,32.95-32.443
			c17.51,0,31.88,14.364,32.951,32.443c0.072,1.219,1.037,2.167,2.201,2.167h18.237c1.267,0,2.269-1.113,2.217-2.441
			C178.616,141.723,154.142,116.865,124.234,116.865z M173.13,172.032h-7.591c-1.776,0-3.3-1.362-3.444-3.16
			c-1.588-19.804-17.962-35.427-37.861-35.427c-19.899,0-36.273,15.622-37.861,35.427c-0.144,1.798-1.668,3.16-3.444,3.16h-7.591
			c-2.027,0-3.596-1.76-3.452-3.814c1.932-27.621,24.672-49.495,52.348-49.495c27.675,0,50.417,21.873,52.348,49.495
			C176.726,170.272,175.158,172.032,173.13,172.032z"/>
		<path style="opacity:0.8;fill:#D35E6F;" d="M159.746,172.868c-1.489-19.627-16.848-35.109-35.512-35.109
			c-18.664,0-34.022,15.483-35.511,35.109c-0.072,0.953-0.522,1.774-1.173,2.34h1.532c1.165,0,2.13-0.948,2.202-2.167
			c1.07-18.079,15.44-32.443,32.95-32.443c17.51,0,31.88,14.364,32.951,32.443c0.072,1.219,1.037,2.167,2.201,2.167h1.532
			C160.268,174.642,159.818,173.821,159.746,172.868z"/>
	</g>
	<g>
		<path style="opacity:0.5;fill:#D35E6F;" d="M400.899,172.22h-18.237c-1.165,0-2.129-0.948-2.202-2.167
			c-1.07-18.079-15.44-32.443-32.951-32.443c-17.51,0-31.88,14.364-32.95,32.443c-0.072,1.219-1.037,2.167-2.202,2.167h-18.237
			c-1.267,0-2.269-1.113-2.217-2.441c1.224-31.044,25.698-55.902,55.606-55.902c29.908,0,54.382,24.859,55.606,55.902
			C403.168,171.107,402.166,172.22,400.899,172.22z"/>
		<g>
			<path style="fill:#E54A5C;" d="M400.899,175.208h-18.237c-1.165,0-2.129-0.948-2.202-2.166
				c-1.07-18.079-15.44-32.443-32.951-32.443c-17.51,0-31.88,14.364-32.95,32.443c-0.072,1.219-1.037,2.166-2.202,2.166h-18.237
				c-1.267,0-2.269-1.113-2.217-2.441c1.224-31.044,25.698-55.902,55.606-55.902c29.908,0,54.382,24.859,55.606,55.902
				C403.168,174.094,402.166,175.208,400.899,175.208z"/>
			<path style="fill:#B53948;" d="M400.899,175.682h-18.237c-1.413,0-2.588-1.148-2.676-2.613
				c-1.061-17.941-15.327-31.996-32.476-31.996c-17.148,0-31.414,14.054-32.476,31.996c-0.087,1.466-1.263,2.613-2.676,2.613
				h-18.237c-0.717,0-1.392-0.29-1.899-0.819c-0.534-0.556-0.823-1.328-0.792-2.115c1.247-31.602,25.88-56.358,56.081-56.358
				c30.201,0,54.835,24.756,56.081,56.358c0.031,0.789-0.258,1.56-0.792,2.116C402.291,175.392,401.616,175.682,400.899,175.682z
				 M347.51,140.123c17.651,0,32.333,14.447,33.424,32.89c0.057,0.964,0.816,1.719,1.727,1.719h18.237
				c0.457,0,0.888-0.187,1.214-0.527c0.356-0.371,0.548-0.889,0.527-1.42c-1.225-31.09-25.441-55.445-55.131-55.445
				c-29.688,0-53.904,24.355-55.131,55.445c-0.021,0.532,0.171,1.049,0.527,1.42c0.327,0.34,0.758,0.527,1.214,0.527h18.237
				c0.911,0,1.67-0.755,1.727-1.719C315.178,154.57,329.86,140.123,347.51,140.123z"/>
		</g>
		<path style="opacity:0.5;fill:#E54A5C;" d="M347.51,125.216c24.049,0,43.93,18.632,46.725,42.584
			c0.209-0.328,0.326-0.724,0.309-1.147c-1.036-25.74-21.737-46.351-47.034-46.351c-25.297,0-45.998,20.612-47.034,46.351
			c-0.017,0.423,0.1,0.819,0.309,1.147C303.58,143.848,323.461,125.216,347.51,125.216z"/>
		<path style="opacity:0.5;fill:#D35E6F;" d="M347.51,116.865c-29.908,0-54.381,24.859-55.606,55.902
			c-0.052,1.327,0.95,2.441,2.217,2.441h18.237c1.165,0,2.13-0.948,2.202-2.167c1.07-18.079,15.44-32.443,32.95-32.443
			c17.51,0,31.88,14.364,32.951,32.443c0.072,1.219,1.037,2.167,2.202,2.167h18.237c1.267,0,2.269-1.113,2.217-2.441
			C401.892,141.723,377.418,116.865,347.51,116.865z M396.406,172.032h-7.591c-1.776,0-3.3-1.362-3.444-3.16
			c-1.588-19.804-17.962-35.427-37.861-35.427c-19.899,0-36.273,15.622-37.861,35.427c-0.144,1.798-1.668,3.16-3.444,3.16h-7.591
			c-2.027,0-3.595-1.76-3.452-3.814c1.931-27.621,24.672-49.495,52.348-49.495c27.676,0,50.417,21.873,52.348,49.495
			C400.002,170.272,398.433,172.032,396.406,172.032z"/>
		<path style="opacity:0.8;fill:#D35E6F;" d="M383.022,172.868c-1.489-19.627-16.848-35.109-35.512-35.109
			c-18.664,0-34.022,15.483-35.511,35.109c-0.072,0.953-0.522,1.774-1.173,2.34h1.532c1.165,0,2.13-0.948,2.202-2.167
			c1.07-18.079,15.44-32.443,32.95-32.443c17.51,0,31.88,14.364,32.951,32.443c0.072,1.219,1.037,2.167,2.202,2.167h1.533
			C383.543,174.642,383.094,173.821,383.022,172.868z"/>
	</g>
	<g>
		<defs>
			<path id="SVGID_1_" d="M151.226,83.811c-12.441,14.14-4.57,20.071,15.603,20.864c16.505,0.649,81.162,3.275,172.823-2.736
				c28.187-1.848,17.505-17.608,4.43-52.481c-12.654-33.751-26.642-33.965-86.248-33.711c-32.699,0.14-31.962-1.845-62.736,25.449
				C178.356,56.046,163.668,69.672,151.226,83.811z"/>
		</defs>
		<clipPath id="SVGID_00000052078998094755102620000009666578160551416249_">
			<use xlink:href="#SVGID_1_"  style="overflow:visible;"/>
		</clipPath>
		<g style="clip-path:url(#SVGID_00000052078998094755102620000009666578160551416249_);">
			<g>
				<g>
					<g>
						<path style="fill:#333333;" d="M176.913,110.128c-0.036,0-0.072-0.002-0.108-0.006c-0.521-0.059-0.896-0.53-0.837-1.051
							l4.36-38.661c0.058-0.521,0.529-0.894,1.051-0.837c0.521,0.059,0.896,0.529,0.837,1.051l-4.36,38.66
							C177.801,109.77,177.39,110.128,176.913,110.128z"/>
						<path style="fill:#231F20;" d="M176.914,110.485c-0.048,0-0.097-0.003-0.145-0.007c-0.72-0.082-1.236-0.73-1.155-1.445
							l4.36-38.661c0.081-0.713,0.735-1.22,1.443-1.152c0.717,0.082,1.234,0.73,1.154,1.445l-4.361,38.661
							C178.135,109.987,177.578,110.485,176.914,110.485z M181.274,69.924c-0.298,0-0.558,0.224-0.591,0.527l-4.36,38.661
							c-0.037,0.326,0.198,0.62,0.523,0.657l0.068,0.004c0.301,0,0.555-0.226,0.588-0.527l4.36-38.66
							c0.037-0.326-0.199-0.621-0.523-0.657C181.317,69.925,181.295,69.924,181.274,69.924z"/>
					</g>
					<g>
						<path style="fill:#333333;" d="M188.781,91.712c-0.03,0-0.06-0.001-0.09-0.005l-19.377-1.829
							c-0.522-0.049-0.906-0.512-0.857-1.034c0.049-0.523,0.507-0.923,1.035-0.856l19.377,1.829
							c0.522,0.049,0.906,0.512,0.857,1.035C189.68,91.343,189.266,91.712,188.781,91.712z"/>
						<path style="fill:#231F20;" d="M188.781,92.068c-0.044,0-0.087-0.002-0.133-0.007l-19.368-1.828
							c-0.347-0.033-0.661-0.199-0.883-0.467c-0.223-0.269-0.327-0.609-0.294-0.956c0.033-0.356,0.211-0.687,0.487-0.908
							c0.268-0.216,0.604-0.309,0.946-0.268l19.365,1.828c0.717,0.067,1.246,0.705,1.178,1.422
							C190.018,91.559,189.458,92.068,188.781,92.068z M169.382,88.338c-0.13,0-0.248,0.042-0.346,0.121
							c-0.126,0.101-0.208,0.254-0.223,0.419c-0.031,0.326,0.21,0.616,0.535,0.647l19.377,1.829l0.057,0.359v-0.356
							c0.308,0,0.562-0.231,0.591-0.538c0.031-0.326-0.21-0.616-0.536-0.647l-19.377-1.829
							C169.433,88.34,169.407,88.338,169.382,88.338z"/>
					</g>
					<g>
						<path style="fill:#333333;" d="M184.027,105.604c-0.398,0-0.769-0.251-0.901-0.649l-9.869-29.611
							c-0.166-0.498,0.103-1.036,0.601-1.202c0.499-0.168,1.036,0.104,1.202,0.601l9.869,29.612
							c0.166,0.498-0.103,1.036-0.601,1.201C184.227,105.588,184.126,105.604,184.027,105.604z"/>
						<path style="fill:#231F20;" d="M184.027,105.96c-0.563,0-1.06-0.359-1.239-0.893l-9.869-29.612
							c-0.228-0.683,0.142-1.424,0.825-1.652c0.331-0.112,0.683-0.086,0.995,0.069c0.314,0.156,0.547,0.425,0.658,0.757
							l9.869,29.612c0.11,0.331,0.085,0.686-0.071,0.998c-0.157,0.312-0.425,0.544-0.756,0.653
							C184.307,105.937,184.168,105.96,184.027,105.96z M174.159,74.447c-0.063,0-0.127,0.011-0.189,0.032
							c-0.311,0.104-0.479,0.441-0.376,0.752l9.869,29.611c0.102,0.302,0.447,0.476,0.751,0.375c0.151-0.05,0.273-0.156,0.344-0.297
							c0.071-0.142,0.083-0.303,0.033-0.455l-9.869-29.611c-0.051-0.151-0.158-0.274-0.3-0.345
							C174.338,74.468,174.249,74.447,174.159,74.447z"/>
					</g>
					<g>
						<path style="fill:#333333;" d="M171.723,103.809c-0.159,0-0.319-0.04-0.467-0.123c-0.456-0.259-0.617-0.838-0.359-1.295
							l14.735-26.023c0.259-0.457,0.838-0.617,1.295-0.359c0.456,0.258,0.617,0.838,0.359,1.295l-14.735,26.024
							C172.376,103.636,172.055,103.809,171.723,103.809z"/>
						<path style="fill:#231F20;" d="M171.724,104.166c-0.224,0-0.445-0.059-0.642-0.169c-0.627-0.356-0.848-1.155-0.493-1.781
							l14.735-26.024c0.172-0.304,0.452-0.522,0.788-0.615c0.337-0.094,0.689-0.05,0.992,0.122c0.303,0.172,0.522,0.451,0.615,0.788
							c0.094,0.336,0.05,0.688-0.122,0.992l-14.735,26.025C172.628,103.913,172.193,104.166,171.724,104.166z M186.46,76.242
							c-0.053,0-0.106,0.007-0.159,0.021c-0.152,0.043-0.28,0.142-0.358,0.279l-14.735,26.024c-0.161,0.285-0.06,0.649,0.223,0.81
							c0.279,0.157,0.653,0.051,0.81-0.225l14.735-26.024c0.078-0.138,0.097-0.298,0.055-0.451c-0.042-0.153-0.141-0.28-0.279-0.358
							C186.661,76.268,186.561,76.242,186.46,76.242z"/>
					</g>
				</g>
				<g>
					<g>
						<path style="fill:#3F3F3F;" d="M177.091,113.598c-7.182-0.605-11.929-11.519-10.807-24.847
							c1.122-13.329,7.627-23.296,14.81-22.691c7.182,0.605,11.93,11.519,10.808,24.848
							C190.778,104.236,184.273,114.203,177.091,113.598z M180.75,70.133c-4.132-0.348-9.416,7.354-10.393,18.961
							c-0.977,11.607,2.945,20.083,7.077,20.431c4.132,0.348,9.416-7.353,10.393-18.96C188.804,78.957,184.882,70.481,180.75,70.133
							z"/>
						<path style="fill:#1C1C1C;" d="M177.07,113.845c-7.321-0.616-12.167-11.648-11.033-25.115
							c1.134-13.467,7.757-23.534,15.077-22.917c7.321,0.616,12.167,11.649,11.033,25.116
							C191.013,104.395,184.391,114.461,177.07,113.845z M181.072,66.306c-7.044-0.593-13.432,9.275-14.542,22.465
							c-1.11,13.19,3.538,23.987,10.582,24.58c7.044,0.593,13.432-9.275,14.542-22.465
							C192.764,77.696,188.116,66.899,181.072,66.306z M177.413,109.772c-2.182-0.184-4.247-2.426-5.665-6.152
							c-1.512-3.972-2.094-9.138-1.638-14.547c0.455-5.408,1.893-10.405,4.047-14.068c2.021-3.436,4.431-5.302,6.613-5.118
							c2.182,0.184,4.247,2.426,5.665,6.152c1.512,3.972,2.093,9.139,1.638,14.547c-0.455,5.408-1.892,10.404-4.047,14.068
							C182.006,108.09,179.595,109.955,177.413,109.772z M180.729,70.38c-4.015-0.338-9.161,7.273-10.126,18.735
							c-0.965,11.462,2.836,19.826,6.851,20.164c4.015,0.338,9.161-7.273,10.126-18.734
							C188.545,79.082,184.744,70.718,180.729,70.38z"/>
					</g>
					<g style="opacity:0.4;">
						<path style="fill:#3F3F3F;" d="M180.838,69.085c-4.826-0.406-10.92,7.66-11.949,19.886
							c-1.029,12.225,3.631,21.197,8.456,21.603c4.826,0.406,10.92-7.66,11.949-19.885
							C190.324,78.463,185.664,69.491,180.838,69.085z M177.434,109.525c-4.131-0.348-8.054-8.824-7.077-20.431
							c0.977-11.607,6.262-19.308,10.393-18.961c4.132,0.348,8.054,8.824,7.077,20.431
							C186.85,102.171,181.565,109.873,177.434,109.525z"/>
						<path style="fill:#3F3F3F;" d="M181.093,66.06c-7.182-0.605-13.687,9.362-14.81,22.691
							c-1.122,13.329,3.625,24.243,10.807,24.847c7.182,0.605,13.688-9.362,14.81-22.691
							C193.023,77.579,188.275,66.664,181.093,66.06z M177.382,112.804c-6.704-0.564-11.107-11.09-10.023-23.963
							s7.184-22.514,13.888-21.95c6.704,0.564,11.107,11.09,10.023,23.963C190.187,103.727,184.086,113.368,177.382,112.804z"/>
					</g>
					<path style="fill:#3F3F3F;" d="M188.637,75.198c0,0,3.163,4.884,2.182,16.543c-0.981,11.658-8.247,18.243-8.247,18.243
						s6.615-7.737,7.503-18.283C191.007,80.638,188.637,75.198,188.637,75.198z"/>
				</g>
				<g>
					<g>
						<path style="fill:#333333;" d="M183.556,90.333c-0.604,5.351-3.094,9.463-5.563,9.184c-2.469-0.278-3.981-4.842-3.378-10.193
							c0.604-5.351,3.094-9.463,5.563-9.184C182.647,80.419,184.16,84.982,183.556,90.333z"/>
						<path style="fill:#231F20;" d="M178.232,99.886c-0.093,0-0.186-0.005-0.279-0.015c-1.34-0.151-2.455-1.372-3.139-3.436
							c-0.653-1.973-0.85-4.513-0.552-7.15c0.298-2.639,1.055-5.07,2.131-6.848c1.128-1.861,2.5-2.802,3.826-2.651
							c2.705,0.305,4.327,4.956,3.692,10.587l0,0C183.296,95.81,180.835,99.886,178.232,99.886z M179.948,80.484
							c-0.981,0-2.045,0.834-2.946,2.322c-1.024,1.692-1.746,4.022-2.032,6.559c-0.287,2.537-0.102,4.969,0.52,6.846
							c0.583,1.76,1.509,2.836,2.542,2.952c2.245,0.247,4.599-3.81,5.169-8.869l0,0c0.57-5.06-0.832-9.547-3.063-9.799
							C180.075,80.488,180.011,80.484,179.948,80.484z M183.556,90.334h0.009H183.556z"/>
					</g>
					<path style="opacity:0.4;fill:#333333;" d="M180.844,90.027c-0.238,2.105-1.217,3.723-2.189,3.613
						c-0.971-0.11-1.566-1.905-1.329-4.01c0.237-2.105,1.217-3.723,2.189-3.613C180.487,86.127,181.082,87.922,180.844,90.027z"/>
					<path style="opacity:0.5;fill:#3F3F3F;" d="M180.178,80.14c-2.469-0.278-4.96,3.834-5.563,9.184
						c-0.604,5.351,0.909,9.914,3.378,10.193c2.469,0.278,4.96-3.834,5.563-9.184C184.16,84.982,182.647,80.419,180.178,80.14z
						 M182.044,90.163c-0.399,3.541-2.048,6.263-3.682,6.079c-1.634-0.184-2.635-3.205-2.235-6.746
						c0.399-3.541,2.048-6.263,3.682-6.079C181.443,83.601,182.444,86.621,182.044,90.163z"/>
				</g>
			</g>
			<g>
				<g>
					<g>
						<path style="fill:#383838;" d="M264.357,77.614c3.904,0.329,4.887,2.626,4.887,2.627c0.031-1.277,0.021-2.308-0.041-2.991
							c-0.734-0.511-3.349-2.048-7.309-1.219c-3.836,0.803-4.882,4.424-8.352,12.527c-2.466,5.759-7.283,17.292-9.864,23.484
							c0.954-0.111,1.891-0.233,2.802-0.372c0.172-0.026,0.339-0.055,0.51-0.082c2.685-6.435,6.799-16.271,9.014-21.446
							C259.475,82.039,260.452,77.285,264.357,77.614z"/>
						<path style="fill:#191919;" d="M243.658,112.289c-0.07-0.006-0.134-0.041-0.177-0.098c-0.053-0.07-0.065-0.163-0.031-0.244
							c2.629-6.306,7.406-17.743,9.865-23.486c0.415-0.97,0.795-1.875,1.15-2.719c2.66-6.33,3.874-9.22,7.379-9.954
							c4.064-0.851,6.769,0.747,7.501,1.258c0.06,0.042,0.098,0.108,0.105,0.181c0.06,0.66,0.074,1.675,0.042,3.019
							c-0.003,0.118-0.088,0.217-0.204,0.238c-0.115,0.018-0.23-0.043-0.274-0.152c-0.036-0.082-0.986-2.161-4.678-2.472
							c-2.991-0.252-4.193,2.742-6.376,8.178c-0.504,1.255-1.075,2.677-1.727,4.199c-2.157,5.037-6.092,14.442-9.014,21.445
							c-0.033,0.079-0.105,0.136-0.19,0.149l-0.511,0.083c-0.849,0.13-1.769,0.252-2.811,0.374
							C243.691,112.29,243.674,112.29,243.658,112.289z M264.981,76.073c-0.891-0.075-1.908-0.036-3.036,0.201
							c-3.25,0.68-4.432,3.494-7.023,9.66c-0.355,0.845-0.736,1.751-1.151,2.721c-2.408,5.625-7.042,16.714-9.7,23.091
							c0.866-0.104,1.646-0.21,2.373-0.322l0.372-0.06c2.916-6.99,6.818-16.313,8.962-21.321c0.65-1.517,1.22-2.936,1.723-4.189
							c2.196-5.469,3.522-8.77,6.878-8.487c2.655,0.224,4.008,1.325,4.633,2.072c0.009-0.865-0.006-1.553-0.044-2.051
							C268.404,77.014,267.02,76.245,264.981,76.073z M246.991,111.588l0.005,0L246.991,111.588z"/>
					</g>
					<path style="opacity:0.6;fill:#383838;" d="M269.204,77.25c-0.109-0.076-0.263-0.175-0.452-0.284
						c-0.874,0.797-4.208-1.087-6.544,0.08c-2.6,1.299-3.932,4.785-5.021,7.333c-1.376,3.22-2.618,6.494-3.867,9.764
						c-1.265,3.313-2.544,6.622-3.962,9.873c-1.14,2.615-2.399,5.175-3.61,7.758c0.245-0.035,0.493-0.067,0.734-0.104
						c0.172-0.026,0.339-0.055,0.51-0.082c2.685-6.436,6.798-16.271,9.014-21.446c3.469-8.102,4.446-12.856,8.352-12.527
						c3.904,0.329,4.887,2.626,4.887,2.627C269.275,78.964,269.266,77.933,269.204,77.25z"/>
					<g>
						<path style="fill:#727A84;" d="M261.894,76.031c3.96-0.829,6.575,0.707,7.309,1.219c-0.012-0.13-0.025-0.248-0.041-0.352
							c-0.66-4.376-12.044-4.923-13.482-2.773c-3.01,4.499-18.396,31.005-22.811,38.615c3.757-0.084,7.407-0.303,10.809-0.698
							c2.581-6.192,7.398-17.724,9.864-23.484C257.012,80.455,258.058,76.834,261.894,76.031z"/>
						<path style="fill:#444A51;" d="M232.434,112.998l0.221-0.382c12.918-22.263,20.808-35.621,22.82-38.628
							c0.953-1.425,5.397-1.655,8.736-0.91c1.788,0.399,4.841,1.422,5.197,3.783c0.016,0.109,0.03,0.231,0.043,0.367l0.049,0.53
							l-0.437-0.304c-0.691-0.481-3.246-1.99-7.117-1.18l0,0c-3.25,0.68-4.432,3.494-7.023,9.66
							c-0.355,0.845-0.736,1.751-1.151,2.721c-2.458,5.742-7.235,17.177-9.863,23.483l-0.056,0.134l-0.144,0.017
							c-3.24,0.376-6.884,0.611-10.832,0.7L232.434,112.998z M261.832,73.219c-2.742-0.231-5.362,0.172-5.945,1.044
							c-1.994,2.981-9.8,16.193-22.581,38.219c3.705-0.094,7.134-0.319,10.201-0.67c2.64-6.333,7.367-17.649,9.809-23.352
							c0.415-0.97,0.795-1.875,1.15-2.719c2.66-6.33,3.874-9.22,7.379-9.954l0,0c3.453-0.722,5.925,0.323,7.039,0.966
							c-0.335-1.428-2.061-2.585-4.781-3.193C263.363,73.396,262.593,73.284,261.832,73.219z"/>
					</g>
					<g>
						<path style="fill:#383838;" d="M261.894,76.031c3.96-0.829,6.575,0.707,7.309,1.219c-0.012-0.13-0.025-0.248-0.041-0.352
							c-0.66-4.376-12.044-4.923-13.482-2.773c-3.01,4.499-18.396,31.005-22.811,38.615c3.757-0.084,7.407-0.303,10.809-0.698
							c2.581-6.192,7.398-17.724,9.864-23.484C257.012,80.455,258.058,76.834,261.894,76.031z"/>
						<path style="fill:#191919;" d="M232.849,112.987c-0.079-0.007-0.151-0.051-0.192-0.12c-0.045-0.077-0.046-0.173-0.001-0.251
							c12.918-22.263,20.808-35.621,22.82-38.628c0.953-1.425,5.397-1.655,8.736-0.91c1.788,0.399,4.841,1.422,5.197,3.783
							c0.016,0.109,0.03,0.231,0.043,0.367c0.009,0.096-0.039,0.188-0.122,0.236c-0.083,0.049-0.187,0.044-0.266-0.011
							c-0.691-0.481-3.246-1.99-7.117-1.18l0,0c-3.25,0.68-4.432,3.494-7.023,9.66c-0.355,0.845-0.736,1.751-1.151,2.721
							c-2.458,5.742-7.235,17.177-9.863,23.483c-0.035,0.082-0.111,0.14-0.2,0.15c-3.24,0.376-6.884,0.611-10.832,0.7
							C232.866,112.988,232.857,112.988,232.849,112.987z M261.832,73.219c-2.742-0.231-5.362,0.172-5.945,1.044
							c-1.994,2.981-9.8,16.193-22.581,38.219c3.705-0.094,7.134-0.319,10.201-0.67c2.64-6.333,7.367-17.649,9.809-23.352
							c0.415-0.97,0.795-1.875,1.15-2.719c2.66-6.33,3.874-9.22,7.379-9.954l0,0c3.453-0.722,5.925,0.323,7.039,0.966
							c-0.335-1.428-2.061-2.585-4.781-3.193C263.363,73.396,262.593,73.284,261.832,73.219z"/>
					</g>
					<g>
						<path style="fill:#383838;" d="M264.357,77.614c-3.905-0.329-4.882,4.425-8.352,12.527c-2.216,5.175-6.33,15.011-9.014,21.446
							c8.674-1.372,15.654-3.541,20.317-5.928c0.595-6.116,1.782-18.943,1.936-25.419C269.244,80.24,268.262,77.943,264.357,77.614z
							"/>
						<path style="fill:#191919;" d="M246.97,111.834c-0.067-0.006-0.131-0.039-0.174-0.094c-0.055-0.071-0.068-0.165-0.034-0.248
							c2.922-7.003,6.858-16.409,9.015-21.448c0.65-1.517,1.22-2.936,1.723-4.189c2.271-5.655,3.522-8.77,6.878-8.487
							c4.078,0.343,5.087,2.757,5.097,2.782c0.012,0.031,0.018,0.064,0.017,0.098c-0.158,6.606-1.408,19.99-1.938,25.437
							c-0.008,0.084-0.058,0.158-0.134,0.196c-4.973,2.545-12.214,4.659-20.391,5.952C247.01,111.835,246.99,111.836,246.97,111.834
							z M264.336,77.861c-2.991-0.252-4.193,2.742-6.376,8.178c-0.504,1.255-1.075,2.677-1.727,4.199
							c-2.115,4.94-5.941,14.079-8.842,21.034c7.881-1.28,14.85-3.323,19.684-5.772c0.535-5.509,1.759-18.652,1.921-25.208
							C268.845,79.989,267.79,78.151,264.336,77.861z"/>
					</g>
				</g>
				<path style="opacity:0.6;fill:#383838;" d="M269.163,76.898c-0.647-4.29-11.593-4.898-13.379-2.895
					c1.151,0.753,0.477,4.312-2.131,9.865c-4.635,9.87-9.415,27.48-15.853,27.126c-1.654-0.091-2.471-0.864-2.779-1.96
					c-0.861,1.482-1.594,2.745-2.151,3.706c3.757-0.084,7.407-0.303,10.809-0.698c2.581-6.192,7.398-17.724,9.864-23.484
					c3.469-8.103,4.515-11.724,8.352-12.527c3.96-0.829,6.575,0.707,7.309,1.219C269.192,77.12,269.178,77.002,269.163,76.898z"/>
				<path style="opacity:0.6;fill:#383838;" d="M269.245,80.241c0-0.001-0.983-2.298-4.887-2.627
					c-3.905-0.329-4.882,4.425-8.352,12.527c-2.216,5.175-6.33,15.011-9.014,21.446c8.674-1.372,15.654-3.541,20.317-5.928
					C267.903,99.543,269.09,86.717,269.245,80.241z M264.763,105.79c-1.277,0.589-9.566,3.053-12.259,3.445
					c-2.693,0.392,3.109-12.251,6.921-21.271c3.625-8.578,4.57-7.813,6.696-7.183c2.126,0.63,1.011,1.66,0.648,9.047
					C266.405,97.213,266.04,105.201,264.763,105.79z"/>
				<path style="opacity:0.5;fill:#FFFFFF;" d="M236.872,107.919L254.344,78.1C254.344,78.1,248.099,97.36,236.872,107.919z"/>
				<path style="opacity:0.5;fill:#FFFFFF;" d="M266.192,83.921c-0.513,7.742-0.818,21.267-3.027,21.081
					C260.956,104.816,266.632,77.288,266.192,83.921z"/>
			</g>
			<g>
				<g>
					<g>
						<path style="fill:#383838;" d="M353.004,77.614c3.904,0.329,4.887,2.626,4.887,2.627c0.031-1.277,0.021-2.308-0.041-2.991
							c-0.734-0.511-3.349-2.048-7.309-1.219c-3.836,0.803-4.882,4.424-8.352,12.527c-2.466,5.759-7.283,17.292-9.864,23.484
							c0.954-0.111,1.891-0.233,2.802-0.372c0.172-0.026,0.339-0.055,0.51-0.082c2.685-6.435,6.798-16.271,9.014-21.446
							C348.122,82.039,349.099,77.285,353.004,77.614z"/>
						<path style="fill:#191919;" d="M332.305,112.289c-0.069-0.006-0.134-0.041-0.177-0.098c-0.053-0.07-0.065-0.163-0.031-0.244
							c2.629-6.306,7.406-17.743,9.865-23.486c0.415-0.97,0.795-1.875,1.15-2.719c2.66-6.33,3.874-9.22,7.379-9.954
							c4.064-0.851,6.769,0.747,7.501,1.258c0.06,0.042,0.098,0.108,0.105,0.181c0.06,0.66,0.074,1.675,0.042,3.019
							c-0.003,0.118-0.088,0.217-0.204,0.238c-0.115,0.018-0.23-0.043-0.274-0.152c-0.036-0.082-0.986-2.161-4.678-2.472
							c-2.991-0.252-4.193,2.742-6.376,8.178c-0.504,1.255-1.075,2.677-1.727,4.199c-2.157,5.037-6.092,14.442-9.014,21.445
							c-0.033,0.079-0.105,0.136-0.19,0.149l-0.511,0.083c-0.849,0.13-1.769,0.252-2.811,0.374
							C332.337,112.29,332.321,112.29,332.305,112.289z M353.628,76.073c-0.891-0.075-1.908-0.036-3.036,0.201
							c-3.25,0.68-4.432,3.494-7.023,9.66c-0.355,0.845-0.736,1.751-1.151,2.721c-2.408,5.625-7.042,16.714-9.7,23.091
							c0.866-0.104,1.646-0.21,2.373-0.322l0.372-0.06c2.916-6.99,6.818-16.313,8.962-21.321c0.65-1.517,1.22-2.936,1.723-4.189
							c2.196-5.469,3.522-8.77,6.878-8.487c2.655,0.224,4.008,1.325,4.633,2.072c0.009-0.865-0.006-1.553-0.044-2.051
							C357.05,77.014,355.667,76.245,353.628,76.073z M335.638,111.588l0.005,0L335.638,111.588z"/>
					</g>
					<path style="opacity:0.6;fill:#383838;" d="M357.85,77.25c-0.109-0.076-0.263-0.175-0.452-0.284
						c-0.874,0.797-4.208-1.087-6.544,0.08c-2.6,1.299-3.932,4.785-5.021,7.333c-1.376,3.22-2.618,6.494-3.867,9.764
						c-1.265,3.313-2.544,6.622-3.962,9.873c-1.141,2.615-2.399,5.175-3.61,7.758c0.245-0.035,0.493-0.067,0.734-0.104
						c0.172-0.026,0.339-0.055,0.51-0.082c2.685-6.436,6.798-16.271,9.014-21.446c3.469-8.102,4.446-12.856,8.352-12.527
						c3.904,0.329,4.887,2.626,4.888,2.627C357.922,78.964,357.913,77.933,357.85,77.25z"/>
					<g>
						<path style="fill:#727A84;" d="M350.541,76.031c3.96-0.829,6.575,0.707,7.309,1.219c-0.012-0.13-0.025-0.248-0.041-0.352
							c-0.66-4.376-12.044-4.923-13.482-2.773c-3.009,4.499-18.396,31.005-22.811,38.615c3.757-0.084,7.407-0.303,10.809-0.698
							c2.581-6.192,7.398-17.724,9.864-23.484C345.659,80.455,346.705,76.834,350.541,76.031z"/>
						<path style="fill:#444A51;" d="M321.081,112.998l0.221-0.382c12.918-22.263,20.808-35.621,22.82-38.628
							c0.953-1.425,5.397-1.655,8.735-0.91c1.788,0.399,4.841,1.422,5.197,3.783c0.016,0.109,0.03,0.231,0.043,0.367l0.049,0.53
							l-0.437-0.304c-0.691-0.481-3.246-1.99-7.117-1.18l0,0c-3.25,0.68-4.432,3.494-7.023,9.66
							c-0.355,0.845-0.736,1.751-1.151,2.721c-2.458,5.742-7.235,17.177-9.863,23.483l-0.056,0.134l-0.144,0.017
							c-3.24,0.376-6.884,0.611-10.832,0.7L321.081,112.998z M350.478,73.219c-2.742-0.231-5.362,0.172-5.945,1.044
							c-1.994,2.981-9.8,16.193-22.581,38.219c3.705-0.094,7.134-0.319,10.201-0.67c2.64-6.333,7.367-17.649,9.809-23.352
							c0.415-0.97,0.795-1.875,1.15-2.719c2.66-6.33,3.874-9.22,7.379-9.954l0,0c3.453-0.722,5.925,0.323,7.039,0.966
							c-0.335-1.428-2.061-2.585-4.781-3.193C352.01,73.396,351.24,73.284,350.478,73.219z"/>
					</g>
					<g>
						<path style="fill:#383838;" d="M350.541,76.031c3.96-0.829,6.575,0.707,7.309,1.219c-0.012-0.13-0.025-0.248-0.041-0.352
							c-0.66-4.376-12.044-4.923-13.482-2.773c-3.009,4.499-18.396,31.005-22.811,38.615c3.757-0.084,7.407-0.303,10.809-0.698
							c2.581-6.192,7.398-17.724,9.864-23.484C345.659,80.455,346.705,76.834,350.541,76.031z"/>
						<path style="fill:#191919;" d="M321.495,112.987c-0.079-0.007-0.151-0.051-0.192-0.12c-0.046-0.077-0.046-0.173-0.001-0.251
							c12.918-22.263,20.808-35.621,22.82-38.628c0.953-1.425,5.397-1.655,8.735-0.91c1.788,0.399,4.841,1.422,5.197,3.783
							c0.016,0.109,0.03,0.231,0.043,0.367c0.009,0.096-0.039,0.188-0.122,0.236c-0.083,0.049-0.187,0.044-0.266-0.011
							c-0.691-0.481-3.246-1.99-7.117-1.18l0,0c-3.25,0.68-4.432,3.494-7.023,9.66c-0.355,0.845-0.736,1.751-1.151,2.721
							c-2.458,5.742-7.235,17.177-9.863,23.483c-0.035,0.082-0.111,0.14-0.2,0.15c-3.24,0.376-6.884,0.611-10.832,0.7
							C321.513,112.988,321.504,112.988,321.495,112.987z M350.478,73.219c-2.742-0.231-5.362,0.172-5.945,1.044
							c-1.994,2.981-9.8,16.193-22.581,38.219c3.705-0.094,7.134-0.319,10.201-0.67c2.64-6.333,7.367-17.649,9.809-23.352
							c0.415-0.97,0.795-1.875,1.15-2.719c2.66-6.33,3.874-9.22,7.379-9.954l0,0c3.453-0.722,5.925,0.323,7.039,0.966
							c-0.335-1.428-2.061-2.585-4.781-3.193C352.01,73.396,351.24,73.284,350.478,73.219z"/>
					</g>
					<g>
						<path style="fill:#383838;" d="M353.004,77.614c-3.905-0.329-4.882,4.425-8.352,12.527
							c-2.216,5.175-6.329,15.011-9.014,21.446c8.674-1.372,15.654-3.541,20.317-5.928c0.595-6.116,1.782-18.943,1.936-25.419
							C357.891,80.24,356.908,77.943,353.004,77.614z"/>
						<path style="fill:#191919;" d="M335.617,111.834c-0.068-0.006-0.131-0.039-0.174-0.094c-0.055-0.071-0.068-0.165-0.034-0.248
							c2.922-7.003,6.858-16.409,9.015-21.448c0.65-1.517,1.22-2.936,1.723-4.189c2.271-5.655,3.522-8.77,6.878-8.487
							c4.078,0.343,5.087,2.757,5.097,2.782c0.012,0.031,0.018,0.064,0.017,0.098c-0.158,6.606-1.408,19.99-1.938,25.437
							c-0.008,0.084-0.058,0.158-0.134,0.196c-4.972,2.545-12.214,4.659-20.391,5.952
							C335.657,111.835,335.637,111.836,335.617,111.834z M352.983,77.861c-2.991-0.252-4.193,2.742-6.376,8.178
							c-0.504,1.255-1.075,2.677-1.727,4.199c-2.115,4.94-5.94,14.079-8.842,21.034c7.881-1.28,14.85-3.323,19.684-5.772
							c0.535-5.509,1.759-18.652,1.921-25.208C357.491,79.989,356.437,78.151,352.983,77.861z"/>
					</g>
				</g>
				<path style="opacity:0.6;fill:#383838;" d="M357.81,76.898c-0.647-4.29-11.593-4.898-13.379-2.895
					c1.151,0.753,0.477,4.312-2.131,9.865c-4.635,9.87-9.415,27.48-15.853,27.126c-1.654-0.091-2.471-0.864-2.779-1.96
					c-0.861,1.482-1.594,2.745-2.151,3.706c3.757-0.084,7.407-0.303,10.809-0.698c2.581-6.192,7.398-17.724,9.864-23.484
					c3.469-8.103,4.516-11.724,8.352-12.527c3.96-0.829,6.575,0.707,7.309,1.219C357.839,77.12,357.825,77.002,357.81,76.898z"/>
				<path style="opacity:0.6;fill:#383838;" d="M357.892,80.241c-0.001-0.001-0.983-2.298-4.888-2.627
					c-3.905-0.329-4.882,4.425-8.352,12.527c-2.216,5.175-6.329,15.011-9.014,21.446c8.674-1.372,15.654-3.541,20.317-5.928
					C356.55,99.543,357.737,86.717,357.892,80.241z M353.409,105.79c-1.277,0.589-9.566,3.053-12.259,3.445
					c-2.693,0.392,3.109-12.251,6.922-21.271c3.625-8.578,4.57-7.813,6.696-7.183c2.126,0.63,1.012,1.66,0.648,9.047
					C355.052,97.213,354.687,105.201,353.409,105.79z"/>
				<path style="opacity:0.5;fill:#FFFFFF;" d="M325.519,107.919L342.99,78.1C342.99,78.1,336.745,97.36,325.519,107.919z"/>
				<path style="opacity:0.5;fill:#FFFFFF;" d="M354.839,83.921c-0.514,7.742-0.818,21.267-3.027,21.081
					C349.603,104.816,355.279,77.288,354.839,83.921z"/>
			</g>
		</g>
	</g>
	<g style="opacity:0.5;">
		<path style="fill:#FFFFFF;" d="M174.499,105.235c2.745,0.096,5.926,0.198,9.528,0.297L156.28,77.785
			c-0.191,0.19-0.381,0.381-0.572,0.572c-1.263,1.361-2.501,2.726-3.724,4.093C159.428,90.105,166.956,97.678,174.499,105.235z"/>
		<path style="fill:#FFFFFF;" d="M160.084,104.469c1.414,0.16,2.913,0.285,4.497,0.374c-5.66-5.688-11.301-11.393-16.899-17.142
			c-0.659,0.954-1.199,1.86-1.64,2.726C150.723,95.108,155.403,99.788,160.084,104.469z"/>
		<path style="fill:#FFFFFF;" d="M144.69,96.031c0.297,2.956,2.582,5.103,6.554,6.554L144.69,96.031z"/>
		<path style="fill:#FFFFFF;" d="M197.415,105.832c7.858,0.139,16.925,0.233,27.096,0.231
			c-16.067-16.067-32.134-32.134-48.202-48.202c-0.587,0.549-1.185,1.102-1.766,1.649c-3.904,3.912-7.814,7.82-11.722,11.728
			C174.353,82.77,185.884,94.301,197.415,105.832z"/>
		<path style="fill:#FFFFFF;" d="M190.266,45.878c-0.141-0.141-0.266-0.285-0.381-0.431c-1.388,1.245-2.764,2.484-4.124,3.717
			c19.039,18.895,38.034,37.833,57.005,56.795c2.44-0.028,4.944-0.063,7.479-0.103C230.251,85.863,210.258,65.87,190.266,45.878z"/>
		<path style="fill:#FFFFFF;" d="M201.805,34.893c-1.704,1.485-3.512,3.077-5.458,4.798c0.151,0.119,0.3,0.247,0.445,0.392
			c21.847,21.847,43.694,43.694,65.541,65.541c3.162-0.072,6.394-0.154,9.68-0.247C248.57,81.923,225.14,58.455,201.805,34.893z"/>
		<path style="fill:#FFFFFF;" d="M304.005,104.188l-83.628-83.628c-3.04,1.747-6.295,4.089-10.204,7.252
			c24.915,24.915,49.831,49.831,74.746,74.746c0.753,0.753,0.982,1.592,0.868,2.375C291.689,104.722,297.77,104.474,304.005,104.188
			z"/>
		<path style="fill:#FFFFFF;" d="M250.274,15.499c-10.968,0.005-17.543,0.099-23.747,2.228
			c28.683,28.683,57.366,57.366,86.049,86.049c7.941-0.401,16.142-0.869,24.568-1.408L250.274,15.499z"/>
		<path style="fill:#FFFFFF;" d="M302.624,16.468c-5.414-0.526-11.568-0.792-18.638-0.916l74.037,74.037
			c-0.157-6.07-3.346-14.445-7.651-25.374L302.624,16.468z"/>
		<path style="fill:#FFFFFF;" d="M345.709,52.278c-0.363-0.949-0.726-1.905-1.093-2.884c-7.574-20.202-15.642-28.452-33.561-31.771
			L345.709,52.278z"/>
		<path style="fill:#FFFFFF;" d="M267.563,15.456c-2.671,0.005-5.441,0.015-8.323,0.027c28.708,28.708,57.416,57.416,86.124,86.123
			c2.623-0.425,4.771-1.037,6.514-1.835L267.563,15.456z"/>
	</g>
	<path style="opacity:0.5;fill:#A8A8A8;" d="M344.616,49.394c-12.727-33.946-26.796-34.161-86.745-33.905
		c-32.887,0.141-32.146-1.855-63.097,25.595c-16.839,14.934-31.611,28.639-44.124,42.86c-12.513,14.221-4.597,20.186,15.693,20.984
		c16.601,0.653,81.63,3.294,173.819-2.751C368.51,100.318,357.766,84.467,344.616,49.394z M331.41,95.803
		c-83.106,5.45-141.729,3.069-156.694,2.48c-18.29-0.719-25.427-6.097-14.147-18.917c11.28-12.82,24.597-25.174,39.777-38.637
		c27.902-24.746,27.234-22.947,56.881-23.074c54.043-0.231,66.725-0.037,78.199,30.564C347.281,79.838,356.966,94.127,331.41,95.803
		z"/>
	<g>
		<path style="opacity:0.5;fill:#D35E6F;" d="M233.235,111.33c2.479,0,9.726,0,13.73,0c4.005,0,2.098,6.674-1.716,6.674
			s-9.622-1.474-10.584-2.193C233.825,115.183,230.374,111.33,233.235,111.33z"/>
		<g>
			<path style="fill:#A8A8A8;" d="M233.944,110.879c2.238,0,8.779,0,12.394,0c3.615,0,1.893,6.025-1.549,6.025
				c-3.443,0-8.686-1.331-9.554-1.98C234.477,114.357,231.362,110.879,233.944,110.879z"/>
			<path style="fill:#565656;" d="M244.788,117.141c-3.393,0-8.747-1.318-9.696-2.027c-0.575-0.429-2.724-2.711-2.345-3.849
				c0.137-0.414,0.54-0.623,1.197-0.623h12.394c0.728,0,1.32,0.235,1.712,0.679c0.35,0.396,0.535,0.948,0.535,1.596
				C248.585,114.68,247.14,117.141,244.788,117.141z M233.944,111.117c-0.43,0-0.68,0.1-0.746,0.299
				c-0.259,0.776,1.562,2.857,2.178,3.319c0.814,0.608,6.014,1.932,9.412,1.932c2.027,0,3.321-2.221,3.321-3.75
				c0-0.53-0.144-0.973-0.417-1.281c-0.303-0.344-0.76-0.519-1.355-0.519H233.944z"/>
		</g>
		<path style="fill:#A8A8A8;" d="M233.944,111.957c2.238,0,8.779,0,12.394,0c1.266,0,1.866,0.436,1.978,1.397
			c0.168-1.307-0.387-2.475-1.978-2.475c-3.615,0-10.156,0-12.394,0c-0.973,0-1.136,0.494-0.922,1.14
			C233.147,111.792,233.428,111.957,233.944,111.957z"/>
		<path style="fill:#A8A8A8;" d="M247.946,111.595c0.011,1.664-1.371,3.808-3.374,3.808c-3.272,0-8.254-1.265-9.079-1.881
			c-0.423-0.316-1.613-1.585-2.03-2.58c-1.633,0.453,1.072,3.459,1.773,3.983c0.868,0.649,6.111,1.98,9.554,1.98
			C247.497,116.904,249.127,113.186,247.946,111.595z"/>
	</g>
	<g>
		<path style="opacity:0.5;fill:#D35E6F;" d="M344.067,108.63c2.386-0.672,9.361-2.636,13.216-3.722
			c3.855-1.086,3.828,5.856,0.157,6.89s-9.661,1.189-10.782,0.758C345.68,112.179,341.314,109.406,344.067,108.63z"/>
		<g>
			<path style="fill:#A8A8A8;" d="M344.628,108.004c2.154-0.607,8.451-2.38,11.93-3.359c3.48-0.98,3.456,5.286,0.142,6.219
				c-3.314,0.933-8.721,1.074-9.733,0.684C346.083,111.208,342.142,108.704,344.628,108.004z"/>
			<path style="fill:#565656;" d="M349.25,111.988c-1.121,0-1.996-0.074-2.369-0.218c-0.67-0.258-3.357-1.872-3.301-3.07
				c0.02-0.436,0.352-0.747,0.983-0.924l11.93-3.359c1.079-0.306,1.755,0.063,2.13,0.428c0.736,0.717,0.986,2.062,0.639,3.427
				c-0.364,1.428-1.298,2.483-2.499,2.82C354.599,111.701,351.451,111.988,349.25,111.988z M357.26,104.777
				c-0.198,0-0.411,0.032-0.638,0.096l-11.93,3.359c-0.413,0.117-0.627,0.281-0.636,0.49c-0.039,0.816,2.279,2.328,2.997,2.604
				c0.947,0.365,6.31,0.229,9.584-0.691c1.035-0.292,1.845-1.219,2.166-2.482c0.301-1.185,0.096-2.378-0.51-2.97
				C358.014,104.913,357.668,104.777,357.26,104.777z"/>
		</g>
		<path style="fill:#A8A8A8;" d="M344.92,109.042c2.154-0.607,8.451-2.38,11.93-3.36c1.219-0.343,1.914-0.086,2.283,0.808
			c-0.192-1.304-1.044-2.277-2.575-1.846c-3.48,0.98-9.776,2.753-11.93,3.359c-0.936,0.264-0.96,0.784-0.579,1.347
			C344.108,109.099,344.423,109.182,344.92,109.042z"/>
		<path style="fill:#A8A8A8;" d="M358.299,104.898c0.462,1.599-0.288,4.037-2.216,4.58c-3.149,0.887-8.288,1.02-9.249,0.65
			c-0.493-0.19-1.982-1.089-2.654-1.933c-1.449,0.878,1.969,3.039,2.786,3.353c1.012,0.389,6.419,0.249,9.733-0.684
			C359.306,110.13,359.868,106.109,358.299,104.898z"/>
	</g>
	<g>
		<g>
			<path style="fill:#E54A5C;" d="M158.518,90.843c11.875-1.188,16.382,9.805,13.675,16.701
				c-3.475,8.855-21.073,10.873-27.014,3.811C139.239,104.294,148.43,91.852,158.518,90.843z"/>
			<path style="fill:#B53948;" d="M156.531,116.1c-4.959,0-9.329-1.602-11.715-4.438c-2.224-2.644-2.599-6.193-1.055-9.993
				c2.411-5.935,8.597-10.687,14.71-11.297c5.156-0.52,9.506,1.2,12.256,4.831c2.687,3.548,3.454,8.577,1.908,12.516
				c-1.591,4.053-6.145,7.066-12.185,8.057C159.122,115.993,157.807,116.1,156.531,116.1z M160.228,91.231
				c-0.543,0-1.098,0.029-1.663,0.084l0,0c-5.689,0.569-11.675,5.173-13.924,10.71c-1.405,3.458-1.085,6.664,0.902,9.024
				c2.789,3.315,8.58,4.801,14.754,3.788c5.706-0.936,9.987-3.728,11.454-7.466c1.43-3.642,0.714-8.302-1.781-11.596
				C167.726,92.812,164.308,91.231,160.228,91.231z"/>
		</g>
		<path style="opacity:0.5;fill:#E54A5C;" d="M159.254,92.225c6.594-0.399,9.096,3.291,7.593,5.606
			c-1.929,2.972-11.701,3.649-15,1.279C148.549,96.74,153.653,92.563,159.254,92.225z"/>
		<path style="opacity:0.5;fill:#D35E6F;" d="M160.225,90.762c8.158,0.25,11.176,8.266,9.153,13.422
			c-2.779,7.083-16.855,8.697-21.607,3.048c-4.305-5.118,1.326-13.768,8.423-15.949c-9.098,2.474-16.495,13.558-11.015,20.072
			c5.941,7.062,23.539,5.044,27.014-3.811C174.766,100.989,170.818,90.743,160.225,90.762z"/>
		<g>
			<path style="fill:#E54A5C;" d="M143.756,103.147c-5.231-1.05-8.28-3.569-8.28-3.569s-2.514,1.975-1.257,7.273
				c0,0,3.322,2.261,9.447,1.727C143.141,106.865,143.218,105.002,143.756,103.147z"/>
			<path style="fill:#B53948;" d="M141.803,109.137c-5.01,0-7.726-1.806-7.852-1.893c-0.098-0.067-0.168-0.167-0.195-0.283
				c-1.312-5.529,1.313-7.668,1.426-7.757c0.174-0.135,0.423-0.134,0.596,0.007c0.03,0.024,3.032,2.458,8.071,3.47
				c0.13,0.026,0.243,0.106,0.313,0.22c0.069,0.113,0.087,0.251,0.05,0.379c-0.54,1.859-0.57,3.595-0.092,5.16
				c0.042,0.137,0.02,0.286-0.061,0.404c-0.08,0.119-0.21,0.196-0.353,0.208C143.04,109.111,142.405,109.137,141.803,109.137z
				 M134.637,106.551c0.677,0.392,3.606,1.887,8.422,1.597c-0.335-1.445-0.299-3.001,0.108-4.64
				c-4.067-0.908-6.737-2.639-7.649-3.301C134.968,100.849,133.786,102.744,134.637,106.551z"/>
		</g>
		<path style="opacity:0.5;fill:#D35E6F;" d="M143.35,103.057c-0.195,0.304-0.412,0.59-0.677,0.882
			c-0.638,0.702-1.55,1.218-2.479,1.41c-0.885,0.183-1.954,0.116-2.796-0.219c-0.906-0.36-1.708-0.983-2.142-1.876
			c-0.479-0.987-0.449-2.022-0.201-3.064c0.026-0.11,0.073-0.214,0.128-0.313c-0.622,0.719-1.949,2.824-0.964,6.975
			c0,0,3.322,2.261,9.447,1.727c-0.524-1.715-0.447-3.577,0.09-5.432C143.617,103.119,143.486,103.087,143.35,103.057z"/>
		<path style="opacity:0.5;fill:#E54A5C;" d="M141.518,103.235c-0.493-0.067-0.959-0.202-1.424-0.378
			c-0.46-0.174-0.926-0.358-1.374-0.562c-0.458-0.208-0.899-0.452-1.318-0.73c-0.475-0.315-0.947-0.682-1.547-0.617
			c-0.324,0.035-0.61,0.288-0.582,0.636c0.053,0.641,0.615,1.013,1.15,1.274c0.523,0.256,1.07,0.473,1.628,0.641
			c0.545,0.164,1.08,0.262,1.65,0.28c0.56,0.018,1.123-0.019,1.682-0.061C141.608,103.701,141.831,103.277,141.518,103.235z"/>
	</g>
</g>
</svg>
